<svg xmlns="http://www.w3.org/2000/svg" viewBox="0 0 25.13 25.13"><defs><style>.cls-1{fill:#fff;}</style></defs><g id="Layer_2" data-name="Layer 2"><g id="Layer_1-2" data-name="Layer 1"><g id="sun"><path id="Path_5197" data-name="Path 5197" class="cls-1" d="M12.56,6.27a6.3,6.3,0,1,0,6.3,6.3A6.3,6.3,0,0,0,12.56,6.27Z"/><path id="Path_5198" data-name="Path 5198" class="cls-1" d="M12.56,4.42a1.23,1.23,0,0,1-1.23-1.23h0v-2a1.23,1.23,0,0,1,2.46,0h0v2a1.23,1.23,0,0,1-1.22,1.23Z"/><path id="Path_5199" data-name="Path 5199" class="cls-1" d="M12.56,20.71a1.23,1.23,0,0,0-1.22,1.23v2a1.23,1.23,0,1,0,2.45,0v-2a1.22,1.22,0,0,0-1.22-1.23h0Z"/><path id="Path_5200" data-name="Path 5200" class="cls-1" d="M18.32,6.81a1.23,1.23,0,0,1,0-1.74h0l1.39-1.39a1.23,1.23,0,0,1,1.74,1.74L20.06,6.81A1.25,1.25,0,0,1,18.32,6.81Z"/><path id="Path_5201" data-name="Path 5201" class="cls-1" d="M6.81,18.32a1.23,1.23,0,0,0-1.74,0h0L3.68,19.71a1.23,1.23,0,0,0,1.74,1.74l1.39-1.39a1.25,1.25,0,0,0,0-1.74Z"/><path id="Path_5202" data-name="Path 5202" class="cls-1" d="M20.71,12.56a1.22,1.22,0,0,1,1.22-1.22h2a1.23,1.23,0,1,1,0,2.45h-2a1.21,1.21,0,0,1-1.22-1.22h0Z"/><path id="Path_5203" data-name="Path 5203" class="cls-1" d="M4.42,12.56a1.24,1.24,0,0,0-1.23-1.23h-2a1.23,1.23,0,1,0,0,2.46h2a1.23,1.23,0,0,0,1.23-1.22Z"/><path id="Path_5204" data-name="Path 5204" class="cls-1" d="M18.32,18.32a1.23,1.23,0,0,1,1.74,0l1.39,1.39a1.24,1.24,0,0,1-.05,1.74,1.23,1.23,0,0,1-1.69,0l-1.39-1.39a1.22,1.22,0,0,1,0-1.73Z"/><path id="Path_5205" data-name="Path 5205" class="cls-1" d="M6.81,6.81a1.25,1.25,0,0,0,0-1.74L5.42,3.68A1.23,1.23,0,0,0,3.68,5.42L5.07,6.81a1.22,1.22,0,0,0,1.73,0Z"/></g></g></g></svg>