<svg xmlns="http://www.w3.org/2000/svg" xmlns:xlink="http://www.w3.org/1999/xlink" width="139.408" height="196.541" viewBox="0 0 139.408 196.541"><defs><style>.a,.b{fill:#2b3d45;}.ab,.al,.b,.cs,.cu,.df,.di,.dn,.ea,.k{opacity:0.4;}.ab,.ag,.al,.au,.av,.b,.cd,.cf,.cl,.cs,.cu,.d,.de,.df,.dh,.di,.dj,.dn,.dv,.ea,.eb,.ee,.i,.k,.m,.r{mix-blend-mode:multiply;}.ab,.ag,.al,.au,.av,.b,.bo,.cd,.cf,.cl,.cs,.cu,.d,.de,.df,.dh,.di,.dj,.dn,.do,.dv,.ea,.eb,.ec,.ee,.ef,.i,.k,.m,.r{isolation:isolate;}.c{fill:url(#a);}.d,.de,.r{fill:#ec7448;}.d,.dh,.dj,.eb,.ee,.ef{opacity:0.2;}.e{fill:url(#b);}.f{fill:url(#c);}.g{fill:url(#d);}.h{fill:#42815e;}.i{fill:#76c8a4;}.ag,.au,.av,.cd,.cl,.do,.dv,.ec,.i,.m,.r{opacity:0.3;}.j,.k{fill:#f24b15;}.l,.m{fill:#c4782e;}.n{fill:#e0863c;}.o{fill:url(#e);}.p{fill:url(#f);}.q{fill:url(#g);}.s{fill:#fff;}.t{fill:url(#h);}.ab,.u{fill:#9b850a;}.v{fill:url(#i);}.w{fill:url(#j);}.x{fill:url(#k);}.y{fill:url(#l);}.z{fill:url(#m);}.aa,.ag{fill:#9d4520;}.ac{opacity:0.7;}.ad{fill:url(#n);}.ae{fill:#ff554e;}.ae,.af,.cf,.de{opacity:0.5;}.af{fill:#cc763d;}.ah{fill:url(#o);}.ai{fill:#b26b35;}.aj{fill:#9e5828;}.ak,.al{fill:#c6793f;}.am{fill:#a5602f;}.an{fill:url(#p);}.ao{fill:url(#q);}.ap{fill:#5b2911;}.aq,.cf{fill:#e99135;}.ar{fill:#ff9d44;}.as{fill:#db771d;}.at{fill:#aa632e;}.au{fill:#bb763a;}.aw{fill:url(#r);}.ax{fill:url(#v);}.ay{fill:url(#w);}.az{fill:url(#x);}.ba{fill:url(#y);}.bb{fill:url(#ab);}.bc{fill:url(#ac);}.bd{fill:url(#ad);}.be{fill:url(#ae);}.bf{fill:url(#ag);}.bg{fill:url(#ai);}.bh{fill:url(#aj);}.bi{fill:url(#ak);}.bj{fill:url(#al);}.bk,.bo{fill:#d7edea;}.bl{fill:#c5e1e5;}.bm,.bo{opacity:0.6;}.bn{fill:#96acb6;}.bo,.do,.ec,.ef{mix-blend-mode:screen;}.bp{fill:#8d614f;}.bq{fill:#34484c;}.br{fill:url(#ao);}.bs{fill:url(#ap);}.bt{fill:url(#aq);}.bu{fill:url(#ar);}.bv{fill:url(#as);}.bw{fill:#d9ddb9;}.bx{fill:#a2b727;}.by{fill:#847972;}.bz{fill:#dbd7ba;}.ca{fill:#ed9f00;}.cb{fill:#281c06;}.cc{fill:#d8110b;}.cd,.ee,.ef{fill:#80451d;}.ce{fill:#706763;}.cg{fill:url(#at);}.ch,.cl{fill:#5d5d5d;}.ci{fill:#9b9b9b;}.cj{fill:#c1c1c1;}.ck{fill:#d33333;}.cm{fill:url(#au);}.cn{fill:url(#av);}.co{fill:url(#aw);}.cp{fill:url(#ax);}.cq{fill:url(#ay);}.cr{fill:url(#az);}.cs,.dd,.dv{fill:#579fb1;}.ct{fill:url(#ba);}.cu{fill:url(#bb);}.cv,.dh{fill:#2a5753;}.cw,.df,.dj{fill:#bf0d2a;}.cx{fill:#d31831;}.cy{fill:url(#bc);}.cz{fill:url(#bd);}.da{fill:url(#be);}.db,.ea,.eb{fill:#a9530b;}.dc{fill:#bc5509;}.dg{fill:#398991;}.di{fill:#1c4440;}.dk,.dn{fill:#8e9596;}.dl,.do{fill:#a9b1b2;}.dm{fill:#6d8284;}.dp{fill:url(#bf);}.dq{fill:url(#bg);}.dr{fill:url(#bh);}.ds{fill:url(#bi);}.dt{fill:url(#bj);}.du{fill:#3c9baa;}.dw{fill:#6fbcc9;}.dx{fill:#4b98a5;}.dy{fill:#708e91;}.dz{fill:url(#bk);}.ed{fill:#bf5405;}.eg{fill:#687554;}.eh{fill:#5b4d36;}.ei{fill:url(#bl);}</style><linearGradient id="a" x1="0.676" y1="0.921" x2="0.309" y2="0.089" gradientUnits="objectBoundingBox"><stop offset="0" stop-color="#f7c292"/><stop offset="1" stop-color="#f7935c"/></linearGradient><linearGradient id="b" x1="0.39" y1="1.06" x2="0.502" y2="0.095" xlink:href="#a"/><linearGradient id="c" x1="0.3" y1="1.136" x2="0.632" y2="0.229" xlink:href="#a"/><linearGradient id="d" x1="0.945" y1="0.011" x2="0.2" y2="0.834" gradientUnits="objectBoundingBox"><stop offset="0" stop-color="#76c8a4"/><stop offset="1" stop-color="#62b197"/></linearGradient><radialGradient id="e" cx="0.569" cy="0.377" r="0.654" gradientTransform="translate(-0.081) scale(1.162 1)" gradientUnits="objectBoundingBox"><stop offset="0" stop-color="#f7c292"/><stop offset="1" stop-color="#f79b6f"/></radialGradient><linearGradient id="f" x1="-0.099" y1="1.035" x2="0.855" y2="0.284" gradientTransform="matrix(1, 0, 0, 1, 0, 0)" xlink:href="#e"/><linearGradient id="g" x1="0.537" y1="1.289" x2="0.503" y2="0.562" gradientTransform="matrix(1, 0, 0, 1, 0, 0)" xlink:href="#e"/><linearGradient id="h" x1="0.252" y1="0.224" x2="0.569" y2="0.754" gradientUnits="objectBoundingBox"><stop offset="0" stop-color="#bb763a"/><stop offset="1" stop-color="#c4782e"/></linearGradient><radialGradient id="i" cx="0.379" cy="0.473" r="1.31" gradientTransform="translate(0.109) scale(0.781 1)" xlink:href="#e"/><radialGradient id="j" cx="-3.213" cy="0.024" r="2.613" gradientTransform="translate(-0.443) scale(1.886 1)" xlink:href="#e"/><linearGradient id="k" x1="0.192" y1="0.195" x2="0.747" y2="0.75" gradientUnits="objectBoundingBox"><stop offset="0" stop-color="#9d4520"/><stop offset="0.995" stop-color="#9b310c"/></linearGradient><radialGradient id="l" cx="3.047" cy="9.531" r="26.39" gradientTransform="translate(-0.621) scale(2.241 1)" xlink:href="#e"/><linearGradient id="m" x1="37.149" y1="24.028" x2="-13.702" y2="-8.618" xlink:href="#k"/><linearGradient id="n" x1="0.268" y1="0.197" x2="0.769" y2="0.649" xlink:href="#a"/><linearGradient id="o" x1="1.01" y1="0.123" x2="0.406" y2="0.85" gradientUnits="objectBoundingBox"><stop offset="0" stop-color="#f7b393"/><stop offset="0.327" stop-color="#f79877"/><stop offset="0.995" stop-color="#f86544"/></linearGradient><linearGradient id="p" x1="0.887" y1="0.324" x2="-0.037" y2="0.807" gradientUnits="objectBoundingBox"><stop offset="0" stop-color="#80451d"/><stop offset="0.995" stop-color="#753c19"/></linearGradient><linearGradient id="q" x1="0.041" y1="0.662" x2="1.079" y2="0.281" gradientUnits="objectBoundingBox"><stop offset="0" stop-color="#80451d"/><stop offset="0.995" stop-color="#c06b2e"/></linearGradient><linearGradient id="r" x1="0" y1="0.5" x2="1" y2="0.5" xlink:href="#k"/><linearGradient id="v" x1="0" y1="0.5" x2="1" y2="0.5" xlink:href="#k"/><linearGradient id="w" x1="0" y1="0.5" x2="1" y2="0.5" xlink:href="#k"/><linearGradient id="x" x1="0" y1="0.5" x2="1" y2="0.5" xlink:href="#k"/><linearGradient id="y" x1="0" y1="0.5" x2="1" y2="0.5" xlink:href="#k"/><linearGradient id="ab" x1="0" y1="0.5" x2="1" y2="0.5" xlink:href="#k"/><linearGradient id="ac" x1="0" y1="0.5" x2="1" y2="0.5" xlink:href="#k"/><linearGradient id="ad" x1="0" y1="0.5" x2="1" y2="0.5" xlink:href="#k"/><linearGradient id="ae" x1="0" y1="0.5" x2="1" y2="0.5" xlink:href="#k"/><linearGradient id="ag" x1="0" y1="0.5" x2="1" y2="0.5" xlink:href="#k"/><linearGradient id="ai" x1="0" y1="0.5" x2="1" y2="0.5" xlink:href="#k"/><linearGradient id="aj" x1="0" y1="0.5" x2="1" y2="0.5" xlink:href="#k"/><linearGradient id="ak" x1="0" y1="0.5" x2="1" y2="0.5" xlink:href="#k"/><linearGradient id="al" x1="0" y1="0.5" x2="1" y2="0.5" xlink:href="#k"/><linearGradient id="ao" x1="5.217" y1="-17.578" x2="3.818" y2="-18.928" gradientTransform="matrix(1, 0, 0, 1, 0, 0)" xlink:href="#e"/><linearGradient id="ap" x1="1.719" y1="1.772" x2="0.504" y2="0.481" gradientTransform="matrix(1, 0, 0, 1, 0, 0)" xlink:href="#e"/><linearGradient id="aq" x1="1.446" y1="1.368" x2="0.267" y2="0.263" gradientTransform="matrix(1, 0, 0, 1, 0, 0)" xlink:href="#e"/><linearGradient id="ar" x1="1.222" y1="1.127" x2="0.104" y2="0.119" gradientTransform="matrix(1, 0, 0, 1, 0, 0)" xlink:href="#e"/><linearGradient id="as" x1="0.849" y1="0.943" x2="0.184" y2="0.184" xlink:href="#a"/><linearGradient id="at" x1="0.203" y1="0.188" x2="0.729" y2="0.527" gradientTransform="matrix(1, 0, 0, 1, 0, 0)" xlink:href="#e"/><linearGradient id="au" x1="0.417" y1="1.132" x2="0.565" y2="0.346" gradientTransform="matrix(1, 0, 0, 1, 0, 0)" xlink:href="#e"/><linearGradient id="av" x1="-18.049" y1="-2.431" x2="-3.457" y2="-0.125" gradientTransform="matrix(1, 0, 0, 1, 0, 0)" xlink:href="#e"/><linearGradient id="aw" x1="-5.242" y1="3.383" x2="4.454" y2="-1.486" gradientTransform="matrix(1, 0, 0, 1, 0, 0)" xlink:href="#e"/><linearGradient id="ax" x1="0.115" y1="0.038" x2="0.94" y2="1.19" gradientTransform="matrix(1, 0, 0, 1, 0, 0)" xlink:href="#e"/><linearGradient id="ay" x1="-0.194" y1="0.497" x2="0.598" y2="0.502" gradientTransform="matrix(1, 0, 0, 1, 0, 0)" xlink:href="#e"/><linearGradient id="az" x1="0.563" y1="0.147" x2="0.388" y2="0.685" gradientUnits="objectBoundingBox"><stop offset="0" stop-color="#579fb1"/><stop offset="0.995" stop-color="#2089a8"/></linearGradient><linearGradient id="ba" x1="0.548" y1="0.868" x2="0.377" y2="0.223" gradientUnits="objectBoundingBox"><stop offset="0" stop-color="#d31831"/><stop offset="0.995" stop-color="#d8081b"/></linearGradient><linearGradient id="bb" x1="0.678" y1="0.842" x2="0.356" y2="0.197" xlink:href="#ba"/><linearGradient id="bc" x1="-0.046" y1="1.931" x2="0.459" y2="0.616" gradientTransform="matrix(1, 0, 0, 1, 0, 0)" xlink:href="#e"/><linearGradient id="bd" x1="0.288" y1="1.166" x2="0.646" y2="0.076" gradientTransform="matrix(1, 0, 0, 1, 0, 0)" xlink:href="#e"/><radialGradient id="be" cx="0.333" cy="0.552" r="0.502" gradientTransform="translate(0.019) scale(0.961 1)" xlink:href="#e"/><linearGradient id="bf" x1="0.902" y1="0.097" x2="0.275" y2="0.851" gradientTransform="matrix(1, 0, 0, 1, 0, 0)" xlink:href="#e"/><linearGradient id="bg" x1="1.226" y1="0.911" x2="0.25" y2="0.356" gradientTransform="matrix(1, 0, 0, 1, 0, 0)" xlink:href="#e"/><linearGradient id="bh" x1="1.004" y1="0.86" x2="0.101" y2="0.27" gradientTransform="matrix(1, 0, 0, 1, 0, 0)" xlink:href="#e"/><linearGradient id="bi" x1="0.811" y1="0.749" x2="-0.216" y2="-0.028" gradientTransform="matrix(1, 0, 0, 1, 0, 0)" xlink:href="#e"/><linearGradient id="bj" x1="0.655" y1="0.638" x2="-0.64" y2="-0.531" gradientTransform="matrix(1, 0, 0, 1, 0, 0)" xlink:href="#e"/><linearGradient id="bk" x1="0.126" y1="-0.147" x2="0.578" y2="0.918" xlink:href="#o"/><linearGradient id="bl" x1="0.396" y1="-0.288" x2="0.553" y2="1.167" xlink:href="#o"/></defs><g transform="translate(537.075 -148.168)"><g transform="translate(-453.662 330.215)"><path class="a" d="M-360.468,538.846c-.012.216,7.63,1.534,10.47-.1.152-.089.119-.411-.057-.854-.591-1.5-2.805-4.372-4.982-4.278-2.1.091-4.075,2.826-4.952,4.309A5.4,5.4,0,0,0-360.468,538.846Z" transform="translate(360.468 -533.608)"/><path class="b" d="M-360.468,543.627c-.012.216,7.63,1.534,10.47-.1.152-.089.119-.411-.057-.854a52.7,52.7,0,0,1-9.934.031A5.4,5.4,0,0,0-360.468,543.627Z" transform="translate(360.468 -538.39)"/></g><g transform="translate(-426.311 281.054)"><path class="c" d="M-282.92,483.318c-.145,1.08-1.442.935-1.442.935s-4.538-8.932-7.419-14.192-9.366-19.378-10.518-24.385,1.873-11.633,1.945-11.9a26.767,26.767,0,0,0-.865-3.2l11.58-1.059s.087.661.229,1.761c.543,4.128,1.887,14.432,2.456,19.04.618,5.005,3.248,24.906,3.895,31.147A16.616,16.616,0,0,1-282.92,483.318Z" transform="translate(302.561 -429.522)"/><path class="d" d="M-282.92,483.318c-.145,1.08-1.442.935-1.442.935s-4.538-8.932-7.419-14.192-9.366-19.378-10.518-24.385,1.873-11.633,1.945-11.9a26.767,26.767,0,0,0-.865-3.2l11.58-1.059s.087.661.229,1.761a46.679,46.679,0,0,1-9,2.5s-1.729,8.617,0,14.02c1.5,4.675,12.433,27.586,15.349,33.67A16.616,16.616,0,0,1-282.92,483.318Z" transform="translate(302.561 -429.522)"/></g><path class="e" d="M-336.37,457.88c-2.594,7.348-7.923,27.808-7.923,27.808h-2.234l-2.211-49.586-.094-2.089c6.231,3.821,12.751.487,12.751.487-.177,1.024-1.009,5.37-1.009,5.37s3.457,4.611,3.6,5.33S-333.777,450.532-336.37,457.88Z" transform="translate(-99.334 -150.838)"/><path class="d" d="M-336.37,457.88c-2.594,7.348-7.923,27.808-7.923,27.808h-2.019c1.1-5.042,7.826-28.694,8.861-32.059,1.154-3.745-1.584-15.633-1.584-15.633-2.054.7-7.744-1.168-9.7-1.894l-.094-2.089c6.231,3.821,12.751.487,12.751.487-.177,1.024-1.009,5.37-1.009,5.37s3.457,4.611,3.6,5.33S-333.777,450.532-336.37,457.88Z" transform="translate(-99.334 -150.838)"/><path class="f" d="M-316.5,219.383s-.033,5.4-.519,6.373-5.637,6.387-9.239-.36Z" transform="translate(-111.245 -37.579)"/><g transform="translate(-489.859 250.181)"><path class="g" d="M-405.068,409.846l-3.195.35-4.91.539-10.266-34.9-3.241,34.9-5.643.324-2.192.126s-1.723-29.4-2.358-40.3c-.011-.16-.019-.314-.028-.465-.121-2.065-.2-3.367-.205-3.525a5.669,5.669,0,0,1,.772-2.375,35.548,35.548,0,0,0,3.776,2.671c.121.074.244.15.369.221,2.7,1.619,6.252,3.209,9.111,2.675a22.712,22.712,0,0,0,7.886-3.572c.119-.082.236-.16.351-.24.71-.487,1.316-.939,1.778-1.3.64-.5,1.007-.819,1.007-.819.354,1.4.78,3.559,1.243,6.187.03.182.063.364.095.549C-408.349,384.553-405.068,409.846-405.068,409.846Z" transform="translate(437.108 -364.156)"/><g transform="translate(0.208 2.118)"><path class="h" d="M-431.957,370.8a13.393,13.393,0,0,1-4.683,3.473c-.011-.16-.019-.314-.028-.465a12.855,12.855,0,0,0,4.342-3.229C-432.2,370.654-432.082,370.73-431.957,370.8Z" transform="translate(436.668 -369.664)"/><path class="h" d="M-386.231,373.259a10.274,10.274,0,0,1-2.542-2.059,24.328,24.328,0,0,1-1.933-2.319c.119-.082.236-.16.351-.24a20.406,20.406,0,0,0,1.7,2.055,11.642,11.642,0,0,0,2.328,2.014C-386.3,372.892-386.263,373.074-386.231,373.259Z" transform="translate(412.414 -368.641)"/></g><path class="i" d="M-413.062,365.381c-2.01,2.342-6.706,6.633-11.132,6.643a16.366,16.366,0,0,1-10.164-4.045s.244,31.737,2.036,43.485l-2.192.126s-2.54-43.332-2.592-44.29a5.669,5.669,0,0,1,.772-2.375s7.854,6.577,13.256,5.567C-419.057,369.742-414.916,366.824-413.062,365.381Z" transform="translate(437.108 -364.561)"/><path class="i" d="M-392.99,423.244l-4.91.539-10.266-34.9Z" transform="translate(421.835 -377.204)"/></g><g transform="translate(-496.421 215.84)"><path class="j" d="M-442.475,302.13c-3.345,3.047-8.524,10.683-8.524,10.683a19.032,19.032,0,0,1,.6-3.787c.862-3.895,2.474-9.673,3.618-13.529.691-2.334,1.208-3.966,1.284-4.05Z" transform="translate(451.001 -291.447)"/><path class="k" d="M-442.475,302.13c-3.345,3.047-8.524,10.683-8.524,10.683a19.032,19.032,0,0,1,.6-3.787c5.183-6.43,4.75-10.144,3.618-13.529.691-2.334,1.208-3.966,1.284-4.05Z" transform="translate(451.001 -291.447)"/></g><path class="l" d="M-411.708,213.654s-.058.024-.168.065c-.3.115-.966.372-1.865.709l-.212.077c-1.164.435-2.667.983-4.221,1.519-.074.024-.145.05-.216.074h0a36.743,36.743,0,0,1-7.259,1.975c-1.029.039-4.055-.128-7.519-.361-.076,0-.153-.009-.231-.015-1.882-.125-3.881-.27-5.757-.408l-.221-.018c-1.967-.146-3.782-.287-5.161-.4l-.216-.016c-.361-.028-.69-.054-.979-.078a18.506,18.506,0,0,1,.117-2.976c.034-.309.076-.633.123-.973.02-.136.039-.274.061-.415a.4.4,0,0,1,.009-.051c.8-5.349,2.092-18.574,6.345-25.217a13.128,13.128,0,0,1,.839-1.171c.1-.123.2-.242.3-.358a13.646,13.646,0,0,1,17-3.026,7.518,7.518,0,0,1,3.741,6.136,5.957,5.957,0,0,1-.031,1.039,3.553,3.553,0,0,1-.121.607,2.129,2.129,0,0,1-.079.222v0a1.1,1.1,0,0,1-.115.2.177.177,0,0,1,.13-.041c.255.013.864.491,1.574,4.193.062.328.116.648.161.959.642,4.312-.207,6.976.934,11.679a12.917,12.917,0,0,0,1.526,3.659C-412.643,212.215-412.069,212.969-411.708,213.654Z" transform="translate(-48.189 -17.254)"/><path class="m" d="M-411.876,221.384c-1.4.54-11.094,4.256-13.775,4.355-2.408.091-15.714-.944-20.084-1.293a20.877,20.877,0,0,1,.24-3.948c2.144-2.109,4.576-3.512,7.649-15.845,3.684-14.785,18.383-7.766,18.924-6.435.262.646,1.011-.473,1.573-.177a1.418,1.418,0,0,1-.194.426s.765-.748,1.7,4.152c.062.328.116.648.161.959-.462,3.285-1.374,7.8-.937,11.571C-416.224,218.559-413.778,219.888-411.876,221.384Z" transform="translate(-48.189 -24.919)"/><g transform="translate(-493.808 165.756)"><path class="n" d="M-416.3,193.107a.125.125,0,0,1,0,.05c-.028.1-.188.117-.21,0,0-.017-.007-.035-.009-.052-.019-.123-.039-.248-.06-.376a10.969,10.969,0,0,0-1.1-3.877,6.493,6.493,0,0,0-3.739-2.926c-3.049-.884-6.462.195-9,1.943a19.029,19.029,0,0,0-5.569,6.715,44.776,44.776,0,0,0-3.367,8.465c-1.612,5.341-2.448,10.891-4.068,16.224l-.216-.016c2.3-7.467,3.1-15.379,6.356-22.552a25.934,25.934,0,0,1,4.564-7.11,13.375,13.375,0,0,1,6.54-3.874,8.087,8.087,0,0,1,7.058,1.161,6.445,6.445,0,0,1,2.045,2.743,14.781,14.781,0,0,1,.657,2.728v0c.021.135.043.27.067.407.014.077.024.158.039.235v0C-416.311,193.034-416.3,193.071-416.3,193.107Z" transform="translate(444.503 -185.407)"/><path class="n" d="M-438.091,191.69c-2.23,4.216-3,9.138-4.128,13.717-.776,3.157-1.509,6.313-2.133,9.505a38.86,38.86,0,0,1-1.115,4.605c.034-.309.076-.633.123-.972.02-.136.039-.274.061-.415a.4.4,0,0,1,.009-.051c.631-2.4.979-4.859,1.532-7.27.761-3.315,1.591-6.616,2.378-9.925a46.124,46.124,0,0,1,2.435-8.022A13.131,13.131,0,0,1-438.091,191.69Z" transform="translate(445.467 -188.722)"/><path class="n" d="M-407.376,221.3l-.212.077q-.4-.729-.726-1.5a24.967,24.967,0,0,1-1.714-6.526,70.733,70.733,0,0,1-.488-7.342c-.078-2.678.069-5.485-1-8-.077.076-.224-.032-.16-.14.021-.039.043-.076.063-.112-.644-2.051-2.76-3.043-4.738-3.421a13.12,13.12,0,0,0-5.887.173,12.8,12.8,0,0,0-5.027,2.963,19.337,19.337,0,0,0-5.493,10.557A43.224,43.224,0,0,0-433.19,221q.159,1.581.4,3.158l-.221-.018c-.017-.114-.032-.229-.05-.343a50.711,50.711,0,0,1-.389-12.689,23.832,23.832,0,0,1,3.793-11.234c2.105-2.971,5.34-5.472,9.043-5.891,3.091-.352,7.9.095,9.146,3.512.05-.1.1-.2.143-.3.056-.123.11-.246.158-.374v0a6.135,6.135,0,0,0,.337-1.225,5.96,5.96,0,0,1-.031,1.039c-.071.2-.151.4-.24.595-.051.116-.105.231-.164.343l-.111.205c1.05,2.369,1.009,5.006,1.061,7.545a73.172,73.172,0,0,0,.439,7.5,25.2,25.2,0,0,0,1.695,6.805A18.013,18.013,0,0,0-407.376,221.3Z" transform="translate(439.254 -189.881)"/><path class="n" d="M-408.675,217.971a15.5,15.5,0,0,0,1.6,7.173c-.074.024-.145.05-.216.074h0a15.3,15.3,0,0,1-1.605-6.754,60.262,60.262,0,0,1,1.067-9.161c.242-1.552.5-3.108.707-4.664a11.694,11.694,0,0,0-.119-4.376c-2.993-2.544-7.83-2.361-11.085-.407-2.985,1.791-4.8,5.221-5.578,8.522a30.319,30.319,0,0,0,.547,14.116c.362,1.461.79,2.911,1.288,4.338-.076,0-.153-.009-.231-.015q-.4-1.164-.745-2.345a36.5,36.5,0,0,1-1.629-12.118c.233-4.247,1.558-8.658,4.786-11.608,3.246-2.969,9.131-3.624,12.648-.76a.113.113,0,0,1,.173.06,11.173,11.173,0,0,1,.188,4.409c-.2,1.483-.438,2.965-.667,4.443A70.1,70.1,0,0,0-408.675,217.971Z" transform="translate(434.517 -192.13)"/></g><path class="o" d="M-409.014,216.81a7.429,7.429,0,0,1-.43,1.569c-1.3,3.452-4.994,8.541-6.414,9.283a.331.331,0,0,1-.042.019c-1.666.808-4.6-1.331-8.026-3.261a7.705,7.705,0,0,1-1.634-1.246,13.641,13.641,0,0,1-3.121-5.38c-2.377.359-4.612-3.17-3.674-5.476.914-2.252,2.656.385,2.734.5-.789-1.871-.326-3.821-.1-5.556.132-1.027,2.017-3.583,5.137-5.284a13.431,13.431,0,0,1,2.03-.9c4.323-1.513,9.509-.536,11.239,1.338s.936,9.113.936,9.113C-409.3,211.452-408.582,213.613-409.014,216.81Z" transform="translate(-55.144 -27.526)"/><path class="p" d="M-441.222,322.092c-.244.27-2.166,7.113-8.156,9.131a13.936,13.936,0,0,1-.884-1.715,8.513,8.513,0,0,1-.785-5.2c.791-3.026,7.959-10.59,7.959-10.59l1.212,5.446Z" transform="translate(-45.314 -87.359)"/><g transform="translate(-480.704 195.646)"><path class="q" d="M-407.229,254.838h-9.1s-1.217-5.971-1.4-6.146a7.7,7.7,0,0,0,1.634,1.246c2.747,1.545,5.172,3.224,6.885,3.417h.011a1.792,1.792,0,0,0,.232.017h0a1.889,1.889,0,0,0,.9-.173l.188.369Z" transform="translate(417.724 -248.692)"/><path class="r" d="M-416.09,249.938c2.747,1.545,5.172,3.224,6.885,3.417a14.238,14.238,0,0,0-6.455,1.482h-.668s-1.217-5.971-1.4-6.146A7.7,7.7,0,0,0-416.09,249.938Z" transform="translate(417.724 -248.692)"/><path class="r" d="M-398.085,258.605a5.914,5.914,0,0,0-1.085-.2,1.888,1.888,0,0,0,.9-.173Z" transform="translate(407.933 -253.728)"/></g><path class="l" d="M-419.868,217.774c-.387-.373.756-2.38,3.053-2.5,2.23-.119,2.479,1.412,2.479,1.412a3.716,3.716,0,0,0-2.447-.211,10.819,10.819,0,0,0-3.085,1.3Z" transform="translate(-61.81 -35.405)"/><path class="s" d="M-405.019,241.469a12.11,12.11,0,0,0,6.227.184s-.823,2.558-2.814,2.568C-404.019,244.233-405.019,241.469-405.019,241.469Z" transform="translate(-69.685 -49.234)"/><path class="j" d="M-411.19,355.316s-5.62,4.921-11.023,5.93c-4.086.764-9.573-2.811-12-4.6-.785-.576-1.252-.967-1.252-.967a79.963,79.963,0,0,1,4.435-8.275l1.978,7.962,17.051-3.272.532,2.1Z" transform="translate(-53.616 -105.135)"/><path class="t" d="M-312.88,383c-4.539,2.269-13.977,1.783-13.977,1.783-.719-2.862-5.978-21.163-5.978-21.163l-3.89,22.691c-.505.609-4.538,1.7-7.638,1.648a10.5,10.5,0,0,1-5.69-2.135c.029-.138.062-.382.1-.717.389-3.672,1.066-18.152,1.2-21.487.078-1.953-.136-7.49-.349-12.2-.007-.164-.016-.325-.022-.488-.06-1.281-.118-2.485-.168-3.525-.017-.316-.03-.614-.046-.9h9.447s1.482.043,3.373.277c.138.017.277.034.419.054.9.119,1.863.283,2.8.5.145.034.29.069.432.106,1.79.461,3.383,1.143,4,2.154l1.245-4.629c1.059-.233,2.035-.481,2.91-.726.143-.039.283-.08.422-.119a40.118,40.118,0,0,0,4.212-1.437s.063.285.169.785c.2.931.56,2.615.972,4.607.037.173.074.348.111.528.819,3.975,1.813,8.971,2.207,11.709.583,4.065,2.675,16.41,3.454,20.966C-312.991,382.362-312.88,383-312.88,383Z" transform="translate(-98.69 -102.65)"/><path class="u" d="M-313.765,255.87a24.354,24.354,0,0,0-4.852,2.146,9.332,9.332,0,0,0-1.885,1.458c-1.921,2.019-1.83,9.931-1.973,14.21v0c-.013.37-.026.713-.043,1.022-.216,3.89-.719,8.932-.719,8.932a42.552,42.552,0,0,1-5.241,1.723c-.713.19-1.483.381-2.3.56l.533-1.99,10.592-39.395a.006.006,0,0,1,0-.006l.162-.605-.057.007c-.991.119-14.808,1.764-19.286,1.346-2.691-.251-10.825-1.982-17.194-3.395.117-.454.248-.951.389-1.433a13.865,13.865,0,0,1,.633-1.816c.6-1.279,5.527-5.515,11.646-6.645q.792-.146,1.608-.218s2.84,3.828,5.042,2.794,4.1-2.537,4.241-3.782c0,0,.615.35,1.59.921a112.969,112.969,0,0,1,10.739,6.931C-316.466,241.57-314.089,250.936-313.765,255.87Z" transform="translate(-95.536 -43.596)"/><path class="l" d="M-396.279,215.661c.1-.133-.6-2.02,1.827-2.24,1.507-.137,3,1.54,3,1.54a5.8,5.8,0,0,0-3-.341A2.811,2.811,0,0,0-396.279,215.661Z" transform="translate(-74.286 -34.429)"/><path class="d" d="M-409.444,220.218c-1.3,3.452-4.994,8.541-6.414,9.283a.329.329,0,0,1-.042.019c-1.666.808-4.6-1.331-8.026-3.261a7.705,7.705,0,0,1-1.634-1.246,13.641,13.641,0,0,1-3.121-5.38c-2.377.359-4.612-3.17-3.674-5.476.914-2.252,2.656.385,2.734.5-.789-1.871-.326-3.821-.1-5.556.132-1.027,2.017-3.583,5.137-5.284-2.012,2.171-5.4,5.839-4.417,10.293,0,0,.4,6.242,4.141,9.339s7.889,5.683,10.086,3.674A25.706,25.706,0,0,0-409.444,220.218Z" transform="translate(-55.144 -29.365)"/><path class="d" d="M-440.17,328.176c-.244.27-2.166,7.113-8.156,9.131a13.934,13.934,0,0,1-.884-1.715c4.454-.938,7.071-6.821,8.387-10.344Z" transform="translate(-46.365 -93.443)"/><path class="k" d="M-411.473,354.194c-6.116,1.788-17,2.35-17.367,2.448-.432.119-1.621-2.062-1.692-2.7-.067-.581-2.129.98-3.684,2.7-.785-.576-1.252-.967-1.252-.967a79.963,79.963,0,0,1,4.435-8.275l1.978,7.962,17.051-3.272Z" transform="translate(-53.616 -105.135)"/><path class="v" d="M-328.729,188.9c-.5,1.152-6.158,3.458-12.273,4.323a15.316,15.316,0,0,1-7.489-1.005l0,0c-.42-.164-.753-.313-.977-.419a4.579,4.579,0,0,1,.119-.622,7.488,7.488,0,0,1,.6-1.554c-.006-.013-.01-.024-.017-.036a16.035,16.035,0,0,1-1.334-9.477,13.018,13.018,0,0,1,.491-1.964,4.44,4.44,0,0,0,1.509-1.85,4.895,4.895,0,0,0,3.89,2.161c1.385-.041,1.526-.726,1.385-1.314a2.929,2.929,0,0,0,2.721,1.675c2.3-.145,1.152-2.522,1.152-2.522,4.468,2.738,7.348,1.587,7.348,1.587,1.584,2.232,2.593,7.059,2.881,8.738A3.072,3.072,0,0,1-328.729,188.9Z" transform="translate(-98.546 -14.839)"/><path class="w" d="M-297.6,198.079a3.909,3.909,0,0,1-1.318,2.183,5.958,5.958,0,0,1-3.067,1.234,23.049,23.049,0,0,0,.5-5.684s.359-1.172.7-2.693a1.867,1.867,0,0,1,1.862.159C-297.791,194.05-297.146,196.047-297.6,198.079Z" transform="translate(-124.052 -23.627)"/><path class="x" d="M-330.54,169.491c-.343,1.521-.7,2.693-.7,2.693a23.049,23.049,0,0,1-.5,5.684c-.929,4.357-3.494,9.762-10.454,10.6-8.3,1-11.559-5.682-11.95-9.645a5.515,5.515,0,0,1,.1-2.028s.115.062.324.162a15.719,15.719,0,0,0,8.47,1.426c6.116-.864,11.77-3.171,12.273-4.323a3.072,3.072,0,0,0,0-2.284,41.8,41.8,0,0,0-1-4.323v0a16.019,16.019,0,0,0-1.88-4.413s-2.881,1.152-7.348-1.586c0,0,1.152,2.377-1.152,2.522a2.929,2.929,0,0,1-2.72-1.675,2.873,2.873,0,0,0-.376-.843,4.733,4.733,0,0,0,.376.843c.14.588,0,1.273-1.385,1.313a4.895,4.895,0,0,1-3.89-2.161,4.44,4.44,0,0,1-1.509,1.85,3.085,3.085,0,0,1-3.32-.048c-1.069-.57-1.312-1.067-1.132-1.483h0c.383-.9,2.734-1.422,2.933-1.471.288-.072-3.747-4.9-2.377-6.845,1.334-1.9,6.229,2.028,6.475,2.226-.153-.185-2.757-3.328-1.362-4.1,1.442-.793,4.972,2.377,4.972,2.377a4.033,4.033,0,0,1,.073-5.331c2.377-2.665,8.356,7.131,8.356,7.131a3.684,3.684,0,0,1,3.386-1.009c1.1.134,2.379,1.588,3.469,3.385a17.862,17.862,0,0,1,2.438,6.124A18.5,18.5,0,0,1-330.54,169.491Z" transform="translate(-94.305)"/><path class="y" d="M-334.879,177.136a2.85,2.85,0,0,0-.378-.847A4.52,4.52,0,0,0-334.879,177.136Z" transform="translate(-106.497 -14.839)"/><path class="z" d="M-334.879,177.136a2.85,2.85,0,0,0-.378-.847A4.52,4.52,0,0,0-334.879,177.136Z" transform="translate(-106.497 -14.839)"/><path class="aa" d="M-351.1,190.183c-.255.467-.119,3.107.724,2.391a42.4,42.4,0,0,1,4.409-2.891c.54-.257-.81-1.662-1.837-1.445A7.237,7.237,0,0,0-351.1,190.183Z" transform="translate(-98.078 -21.133)"/><path class="ab" d="M-316.726,231.706c-1.18,2-3.346,4.335-6.621,4.389-3.251.054-4.941-2.288-5.86-4.1q.792-.146,1.608-.218s2.84,3.828,5.042,2.794,4.1-2.537,4.241-3.782C-318.316,230.785-317.7,231.135-316.726,231.706Z" transform="translate(-109.69 -43.596)"/><g class="ac" transform="translate(-451.565 196.822)"><path class="ab" d="M-319.549,254.7c-.991.119-14.808,1.764-19.286,1.346-2.691-.251-10.825-1.982-17.194-3.395.117-.454.248-.951.389-1.432,2.585.326,10.7,2.809,14.175,3.667,3.674.908,10.527.884,15.494-.186s2.588-.717,2.588-.717,1.036-2.654,2.282-2.8c0,0-1.489,2.2-.914,3.333l2.522-.119S-319.511,254.5-319.549,254.7Z" transform="translate(356.029 -251.18)"/><path class="ab" d="M-290.409,273.383a9.333,9.333,0,0,0-1.885,1.458c-1.921,2.019-1.83,9.931-1.973,14.21-.3-.78-.8-1.273-1.578-.633-1.329,1.085-3.375,8.319-4.426,12.312-.713.19-1.483.381-2.3.56l.533-1.99,10.592-39.394c-.367,2.088-1.2,7.206-.916,9.133A12.435,12.435,0,0,0-290.409,273.383Z" transform="translate(327.821 -255.785)"/></g><path class="aa" d="M-328.5,185.886c.322-.412.956-.382,2.631-.305s3.9.4,4.255,1.219c.239.545.074,1.9-.22,2-.521.183-2.105-.715-3.415-.914a30.718,30.718,0,0,1-3.252-.527C-328.8,187.252-328.821,186.3-328.5,185.886Z" transform="translate(-109.939 -19.718)"/><path class="ad" d="M-274.493,307.447c-.54,1.413-3.458,2.107-6.591.216-3.575-2.157-5.239-5.087-7.149-9.239-1.37-2.972-2.06-9.624-2.237-11.686a7.255,7.255,0,0,1,.393-3.505c.392-.8,1.055-1.083,2.026-.393a17.064,17.064,0,0,1,2.47,2.141c.01.011.021.024.032.037.408.43.629.709.629.709,1.135-.918,5.727-2.593,5.727-2.593.093.365.182.763.268,1.184.854,4.212,1.353,10.774,1.353,10.774a21.4,21.4,0,0,1,2.433,6.338C-274.487,304.135-274.205,306.692-274.493,307.447Z" transform="translate(-130.107 -70.859)"/><path class="ae" d="M-317.551,202.875c.472.787,3.837-.529,3.134-1.373S-318.2,201.794-317.551,202.875Z" transform="translate(-115.794 -27.989)"/><path class="ae" d="M-346.734,205.925c-.236.393-.93.367-1.535.095a7.488,7.488,0,0,1,.6-1.554c-.006-.013-.01-.024-.017-.036C-347.035,204.831-346.486,205.513-346.734,205.925Z" transform="translate(-99.631 -29.689)"/><path class="af" d="M-430.7,227.483c.486-.335,2.519,1.717,2.827,2.907a1.086,1.086,0,0,1-1.414,0c-.765-.594,0-1.367,0-1.367Z" transform="translate(-56.132 -41.835)"/><path class="d" d="M-274.493,308.322c-.54,1.413-3.458,2.107-6.591.216-3.575-2.157-5.239-5.087-7.149-9.239-1.37-2.972-2.06-9.624-2.237-11.686a7.254,7.254,0,0,1,.393-3.5c.372,3.484,1.533,13.371,5.643,16.542,3.456,2.664,7.331,3.628,9.3,1.655C-274.487,305.011-274.205,307.567-274.493,308.322Z" transform="translate(-130.107 -71.734)"/><path class="af" d="M-298.388,198.147a4.989,4.989,0,0,0-2.617,2.678l-.082,1.245s2.311-.205,1.4-2.052C-299.793,199.8-298.388,198.147-298.388,198.147Z" transform="translate(-124.528 -26.373)"/><path class="d" d="M-328.484,186.612a3.072,3.072,0,0,1,0,2.284c-.5,1.152-6.158,3.458-12.273,4.323a15.316,15.316,0,0,1-7.489-1.005c9.364,2.531,18.837-2.768,18.988-4.569.162-1.919-2.384-8.835-2.384-8.835-4.137,1.586-6.231-1.232-6.313-1.347a1.779,1.779,0,0,1-.758,2.265c-1.388.854-3.808-1.223-3.871-1.275.016.087.249,1.392-1.424,1.679-1.729.3-3.805-2.079-3.805-2.079-.259,1.969-1.338,2.176-2.047,2.048a13.022,13.022,0,0,1,.491-1.964,4.44,4.44,0,0,0,1.509-1.85,4.895,4.895,0,0,0,3.89,2.161c1.385-.041,1.526-.726,1.385-1.314a2.929,2.929,0,0,0,2.721,1.675c2.3-.145,1.152-2.522,1.152-2.522,4.468,2.738,7.348,1.587,7.348,1.587C-329.781,180.107-328.772,184.933-328.484,186.612Z" transform="translate(-98.791 -14.839)"/><path class="d" d="M-301.99,201.5a23.049,23.049,0,0,0,.5-5.684s.359-1.172.7-2.693a1.867,1.867,0,0,1,1.862.159,10.9,10.9,0,0,0,.008,6.984A5.958,5.958,0,0,1-301.99,201.5Z" transform="translate(-124.052 -23.627)"/><path class="d" d="M-293.836,289.761c-.348.579-1.225.49-2.464-.271s-2.53-2.617-2.465-3.7c.8,1.292,3.278,4.006,4.033,3.534C-294.733,289.329-293.9,289.251-293.836,289.761Z" transform="translate(-125.752 -72.624)"/><path class="d" d="M-274.672,293.352a91.478,91.478,0,0,0-5.33-7.571c.408.43.629.709.629.709,1.134-.918,5.727-2.593,5.727-2.593.093.365.182.763.268,1.184C-275.58,287.739-274.672,293.352-274.672,293.352Z" transform="translate(-135.655 -71.623)"/><path class="ag" d="M-330.54,180.627c-.343,1.521-.7,2.693-.7,2.693a23.049,23.049,0,0,1-.5,5.684c-.929,4.357-3.494,9.762-10.454,10.6-8.3,1-11.559-5.682-11.95-9.645.976,2.383,2.727,5.88,4.819,6.652,3.241,1.193,8.219,1.767,11.854-.573s6.171-8.049,4.722-13.335c-.467-1.7-.858-3.058-1.225-4.113v0a16.019,16.019,0,0,0-1.88-4.413s-2.881,1.152-7.348-1.587c0,0,1.152,2.377-1.152,2.522a2.929,2.929,0,0,1-2.72-1.675c.14.588,0,1.273-1.385,1.313a4.895,4.895,0,0,1-3.89-2.161,4.44,4.44,0,0,1-1.509,1.85,3.085,3.085,0,0,1-3.32-.048c-1.069-.57-1.312-1.067-1.132-1.483h0c1.531.856,4.984,1.643,6.006-1.04,0,0,2.4,2.978,3.626,1.848a2.082,2.082,0,0,0,.583-2.4c.152.3,2.069,3.99,3.45,2.662a2.883,2.883,0,0,0,.507-3.255c.13.095,4.748,3.48,8.005,2.717,2.537-.595,3.773-1.669,3.745-4.162a17.862,17.862,0,0,1,2.438,6.124A18.5,18.5,0,0,1-330.54,180.627Z" transform="translate(-94.305 -11.135)"/><g transform="translate(-443.395 169.762)"><path class="ah" d="M-335.109,200.5c-.972,1.649-3.565.728-3.62-.461a.863.863,0,0,1,.106-.484c.37-.636,1.569-.48,1.569-.48.81-.967.594-4.223.432-5.187a20.032,20.032,0,0,1,1.677,4.826A2.844,2.844,0,0,1-335.109,200.5Z" transform="translate(338.73 -193.887)"/><path class="d" d="M-335.109,205.889c-.972,1.649-3.565.728-3.62-.461a.863.863,0,0,1,.106-.484,1.727,1.727,0,0,0,1.91,1.106,2.483,2.483,0,0,0,1.768-1.947A2.843,2.843,0,0,1-335.109,205.889Z" transform="translate(338.73 -199.278)"/></g><path class="ai" d="M-287.941,391.438l2.917,13.215,5.351-.693-2.232-9.032Z" transform="translate(-131.465 -128.371)"/><g transform="translate(-450.002 264.685)"><path class="ai" d="M-346.387,396.861l-1.275,11.413-3.458.465V397.546Z" transform="translate(351.876 -395.918)"/><path class="aj" d="M-344.624,408.184l-.739-.76.739-10.468,1.275-.266Z" transform="translate(348.837 -395.827)"/><path class="ak" d="M-347.106,395.441l.061-.013c-.423.376-2.887,2.781-4.908,3.33h-.01s-.992-.751-.7-3.9A44.694,44.694,0,0,0-347.106,395.441Z" transform="translate(352.719 -394.863)"/><path class="ak" d="M-340.653,395.97l0,0a.108.108,0,0,1-.05.031.141.141,0,0,1,.021-.019l.007,0C-340.64,395.944-340.634,395.944-340.653,395.97Z" transform="translate(346.379 -395.437)"/><path class="al" d="M-346.15,395.994a.109.109,0,0,1-.05.031c-.423.376-2.887,2.781-4.908,3.33h-.01c1.193-1.741,4.238-3.061,4.858-3.319l.082-.032.007,0A.062.062,0,0,1-346.15,395.994Z" transform="translate(351.875 -395.46)"/><path class="am" d="M-348.4,419.416l-2.719.477v.748l3.458-.465Z" transform="translate(351.876 -407.819)"/></g><g transform="translate(-419.771 261.081)"><path class="aj" d="M-286.977,390.617l2.764,12.622-1.038.98-3.12-13.457Z" transform="translate(288.533 -389.019)"/><g transform="translate(0 0)"><path class="ak" d="M-281.5,387.233l-.816,5.475c-3.762.64-6.325-3.866-6.4-4h0Z" transform="translate(288.714 -387.233)"/><path class="al" d="M-282.312,394.359c-3.762.64-6.325-3.866-6.4-4C-288.581,390.429-283.742,392.983-282.312,394.359Z" transform="translate(288.712 -388.884)"/></g><path class="am" d="M-281.765,417.891l1.038-.98,4.147-.386.166.672Z" transform="translate(285.047 -402.69)"/></g><g transform="translate(-527.451 295.404)"><path class="an" d="M-425.9,509.437l-3.2.113-16.944.6-44.192,1.553-6.7.236-3.112.11-.134-2.362-2.094-36.863,17.13-1.124,55.363-3.633,2.626-.173.076,2.479.113,3.7.979,32.442Z" transform="translate(509.087 -464.118)"/><path class="ao" d="M-434.767,463.676l-2.626.173-55.363,3.633-17.13,1.124-6.812-4.7,29.129-1.614,28.962-1.606,14.026-.778,5.619,2.159,2.171.835Z" transform="translate(516.698 -459.904)"/><path class="ap" d="M-507.658,512.3l-1.139-1.376-5.094-6.162-2.807-36.39,6.812,4.7,2.094,36.863Z" transform="translate(516.698 -464.371)"/><g transform="translate(8.906 3.771)"><path class="aq" d="M-346.111,470.368a7.987,7.987,0,0,1-2.721-2.252l.245-.069h0l2.4-.158Z" transform="translate(419.211 -467.889)"/><path class="aq" d="M-344.143,552.592l-3.2.112a4.265,4.265,0,0,1,3.108-3.036Z" transform="translate(418.423 -511.043)"/><path class="aq" d="M-494.6,558.489l-3.112.11-.134-2.363C-496.944,555.952-495.468,555.958-494.6,558.489Z" transform="translate(497.841 -514.443)"/></g><path class="ar" d="M-346.186,467.02l-2.646.227s.007-.019.019-.053a3.486,3.486,0,0,1,.6-.951Z" transform="translate(428.117 -463.249)"/><path class="as" d="M-498.83,558.738l-1.139-1.376c.32-.964,1.005-.986,1.005-.986Z" transform="translate(507.87 -510.811)"/></g><g transform="translate(-447.818 241.482)"><path class="at" d="M-290.527,350.221a15.064,15.064,0,0,1-3.862-2.114,9.072,9.072,0,0,1-2.023-2.25c.143-.039.283-.08.422-.119a8.136,8.136,0,0,0,2.849,2.736,24.405,24.405,0,0,0,2.5,1.219C-290.6,349.866-290.563,350.041-290.527,350.221Z" transform="translate(320.822 -345.738)"/><path class="at" d="M-342.324,350.781a20.822,20.822,0,0,1-5.749,4.908c-.007-.164-.016-.325-.022-.488a20.488,20.488,0,0,0,5.218-4.42Z" transform="translate(348.095 -348.399)"/><path class="at" d="M-317.873,359.772a11.62,11.62,0,0,1-2.269-1.764,4.788,4.788,0,0,1-.876-2.39,34.775,34.775,0,0,1-.386-4.251c.138.017.277.034.419.054a31.165,31.165,0,0,0,.28,3.387c.155,1.065.239,2.342,1.078,3.116a14.454,14.454,0,0,0,1.584,1.193c-.125-2.4-.146-4.8-.146-7.195.145.034.29.069.432.106,0,2.474.024,4.945.163,7.417C-317.443,359.621-317.663,359.925-317.873,359.772Z" transform="translate(334.01 -348.708)"/></g><path class="au" d="M-312.88,401.07c-4.539,2.269-13.977,1.783-13.977,1.783-.719-2.862-5.978-21.163-5.978-21.163l-3.89,22.691c-.505.609-4.538,1.7-7.638,1.648a10.5,10.5,0,0,1-5.69-2.135c.029-.138.062-.382.1-.717a13.018,13.018,0,0,0,10.635.717l5.836-26.958,8,23.7s7.074,1.035,12.315-1.273C-312.991,400.431-312.88,401.07-312.88,401.07Z" transform="translate(-98.69 -120.719)"/><path class="au" d="M-319.121,343.48a41.648,41.648,0,0,1-5.572,2.312,21.309,21.309,0,0,1-3.241,5.63s-1.08-.369-5.379-2.455c-3.452-1.673-11.971-1.638-15.189-1.558-.017-.316-.03-.614-.046-.9h9.447s1.482.043,3.373.277c.138.017.277.034.419.054.9.119,1.863.283,2.8.5.145.034.29.069.432.106,1.79.461,3.383,1.143,4,2.154l1.245-4.629c1.059-.233,2.035-.481,2.91-.726.143-.039.283-.08.422-.119a40.124,40.124,0,0,0,4.212-1.437S-319.227,342.98-319.121,343.48Z" transform="translate(-99.484 -102.65)"/><g class="av" transform="translate(-451.064 149.768)"><path class="aw" d="M-329.7,154.34a13.11,13.11,0,0,1-2.307-2.733c-.075-.116-.267-.018-.192.1a13.334,13.334,0,0,0,2.338,2.778C-329.758,154.577-329.6,154.434-329.7,154.34Z" transform="translate(342.963 -151.556)"/><path class="aw" d="M-327.85,162.828a11.575,11.575,0,0,0-3.325-.762.108.108,0,0,0-.011.216,11.375,11.375,0,0,1,3.267.751C-327.787,163.083-327.72,162.877-327.85,162.828Z" transform="translate(342.471 -157.102)"/><path class="aw" d="M-338.078,160.637c-.922-.364-1.277-1.424-1.953-2.077-.1-.1-.261.048-.161.145.712.689,1.07,1.752,2.045,2.138C-338.016,160.894-337.949,160.689-338.078,160.637Z" transform="translate(347.188 -155.235)"/><path class="aw" d="M-348.207,165.164a9.812,9.812,0,0,0-1.5-1.472,3.571,3.571,0,0,0-1.6-.94c-.138-.019-.149.2-.011.216a3.728,3.728,0,0,1,1.593.992,8.949,8.949,0,0,1,1.358,1.349C-348.282,165.42-348.122,165.274-348.207,165.164Z" transform="translate(353.094 -157.463)"/><path class="ax" d="M-352.232,175.253c-.695.552-1.82.408-2.653.515-.138.017-.09.229.046.212.88-.113,2.014.019,2.751-.566C-351.979,175.327-352.125,175.167-352.232,175.253Z" transform="translate(354.969 -164.048)"/><path class="ay" d="M-348.477,169.729a3.387,3.387,0,0,1-2.195-1.1c-.1-.092-.264.052-.161.145a3.613,3.613,0,0,0,2.344,1.17C-348.35,169.942-348.338,169.726-348.477,169.729Z" transform="translate(352.804 -160.55)"/><path class="az" d="M-340.265,173.7a3.987,3.987,0,0,1-.592,1.05c-.374.4-.857-.111-1.116-.385-.095-.1-.256.043-.161.144.312.333.755.775,1.246.537.435-.211.638-.873.828-1.277C-340,173.645-340.207,173.579-340.265,173.7Z" transform="translate(348.211 -163.207)"/><path class="ba" d="M-332.777,171.351a11.589,11.589,0,0,0-2.378-.811c-.135-.028-.2.176-.068.205a11.518,11.518,0,0,1,2.377.81C-332.718,171.614-332.651,171.408-332.777,171.351Z" transform="translate(344.587 -161.572)"/><path class="ax" d="M-318.9,173.052a4.06,4.06,0,0,1-3.517-.993c-.1-.1-.261.047-.161.145a4.291,4.291,0,0,0,3.724,1.06C-318.714,173.249-318.761,173.038-318.9,173.052Z" transform="translate(337.892 -162.358)"/><path class="aw" d="M-314.262,165.573c-.191.66-.856,1.016-1.32,1.467-.1.1.044.258.145.161.495-.481,1.177-.855,1.381-1.559C-314.018,165.508-314.223,165.44-314.262,165.573Z" transform="translate(334.203 -158.914)"/><path class="bb" d="M-309.248,169.92a3.451,3.451,0,0,1-1.537,1.737c-.112.082.033.242.145.161a3.609,3.609,0,0,0,1.6-1.829C-309.009,169.853-309.215,169.785-309.248,169.92Z" transform="translate(331.675 -161.208)"/><path class="bc" d="M-304.929,185.123c-.38-.9-.183-1.947-.772-2.778-.081-.113-.24.032-.16.144.567.8.372,1.855.741,2.733C-305.068,185.35-304.876,185.251-304.929,185.123Z" transform="translate(329.067 -167.781)"/><path class="bd" d="M-301.454,180.59c-.066,1.176-.308,2.334-.325,3.512,0,.139.214.151.216.011.016-1.178.259-2.337.325-3.512A.108.108,0,0,0-301.454,180.59Z" transform="translate(326.901 -166.825)"/><path class="be" d="M-305.468,206.1c-.2,1.173-1.1,2.041-1.454,3.16a.109.109,0,0,0,.206.068c.358-1.141,1.262-2.016,1.464-3.216C-305.229,205.977-305.445,205.967-305.468,206.1Z" transform="translate(329.618 -180.288)"/><path class="aw" d="M-345.693,215.927a7.166,7.166,0,0,1-.907-4.321c.025-.137-.191-.147-.216-.012a7.349,7.349,0,0,0,.931,4.432A.108.108,0,0,0-345.693,215.927Z" transform="translate(350.704 -183.186)"/><path class="bf" d="M-339.606,223.5c-.922-.764-.975-2.139-1.2-3.229a.108.108,0,0,0-.211.046c.236,1.161.307,2.55,1.289,3.363C-339.617,223.766-339.5,223.584-339.606,223.5Z" transform="translate(347.606 -187.771)"/><path class="bf" d="M-315.952,211.225c-.322.663-.532,1.371-.81,2.053-.053.129.153.2.205.068.278-.682.488-1.39.81-2.053C-315.686,211.168-315.892,211.1-315.952,211.225Z" transform="translate(334.812 -183.008)"/><path class="bg" d="M-313.046,218.543a26.774,26.774,0,0,0-1.08,2.81c-.039.134.166.2.205.068a27.177,27.177,0,0,1,1.08-2.81C-312.788,218.482-312.992,218.416-313.046,218.543Z" transform="translate(333.419 -186.868)"/><path class="bh" d="M-319.93,212.279a13.451,13.451,0,0,1-.373,1.97c-.034.135.171.2.2.068a13.781,13.781,0,0,0,.384-2.028C-319.7,212.151-319.917,212.14-319.93,212.279Z" transform="translate(336.677 -183.546)"/><path class="bi" d="M-322.272,222.429a6.494,6.494,0,0,0-.381,2.975c.023.137.234.091.211-.047a6.228,6.228,0,0,1,.375-2.86A.109.109,0,0,0-322.272,222.429Z" transform="translate(337.943 -188.917)"/><path class="bj" d="M-329.758,224.644a.108.108,0,0,0-.216-.012,11.636,11.636,0,0,0,.057,2.677c.023.137.234.091.211-.046A11.318,11.318,0,0,1-329.758,224.644Z" transform="translate(341.806 -190.065)"/><path class="aw" d="M-335.212,219.063a6.684,6.684,0,0,1-.592-3c.021-.137-.195-.148-.216-.012a6.786,6.786,0,0,0,.6,3.055C-335.38,219.24-335.168,219.2-335.212,219.063Z" transform="translate(344.988 -185.54)"/><path class="bi" d="M-326.645,215.023a15.051,15.051,0,0,1-.752,2.566c-.036.134.169.2.205.068a15.416,15.416,0,0,0,.762-2.622C-326.417,214.9-326.633,214.885-326.645,215.023Z" transform="translate(340.421 -184.995)"/></g><path class="d" d="M-347.572,197c-.257-.1.029-2.683,1.987-3.178s3.544,2.452,3.477,2.533S-345.763,197.7-347.572,197Z" transform="translate(-99.957 -24.062)"/><path class="d" d="M-326.94,194.13c-.041-.3.158-3.348,2.643-3.2s3.293,3.059,3.037,3.425Z" transform="translate(-110.884 -22.561)"/><g transform="translate(-495.316 196.4)"><path class="bk" d="M-368.373,254.219l-10.756,40.006-.533,1.99-1.245,4.629c-1.729-2.815-11.021-3.092-11.021-3.092h-10.914l-.033.007-16.09,3.088-.555.106-16.5,3.166L-438,296.156c-3.536-14.238-10.585-42.612-10.665-42.854,0,0,.519.043,1.392.112,4.37.349,17.676,1.384,20.084,1.293a7.166,7.166,0,0,0,1.087-.149,106.7,106.7,0,0,0,12.187-4.014c.426-.162.669-.257.669-.257s3.7.861,8.332,1.889c6.2,1.376,14.08,3.053,16.972,3.372.077.008.153.017.222.023C-383.069,256-368.373,254.219-368.373,254.219Z" transform="translate(448.661 -250.287)"/><path class="bl" d="M-349.114,255.548c-.378,5.141-3.6,36.377-4.206,42.2h-10.7l-.033.007c-1.562-6.434-9.064-37.423-11.035-47.214.426-.162.669-.257.669-.257s3.7.861,8.332,1.889C-359.883,253.553-352.006,255.23-349.114,255.548Z" transform="translate(409.837 -250.287)"/><path class="bl" d="M-419.522,304.321l-16.5,3.166L-438,299.525c-3.536-14.238-10.585-42.612-10.665-42.854,0,0,.519.043,1.392.112,4.37.349,17.676,1.384,20.084,1.293a7.166,7.166,0,0,0,1.087-.149Z" transform="translate(448.661 -253.656)"/><g class="bm" transform="translate(3.641 6.941)"><path class="bn" d="M-440.2,267.072a.756.756,0,0,1-.755-.727.757.757,0,0,1,.727-.785l15.1-.576a.755.755,0,0,1,.784.727.756.756,0,0,1-.727.785l-15.1.576Z" transform="translate(440.952 -264.984)"/><g transform="translate(1.974 4.944)"><path class="bn" d="M-436.157,277.151a.616.616,0,0,1-.615-.592.616.616,0,0,1,.591-.639l12.283-.469a.619.619,0,0,1,.638.592.616.616,0,0,1-.592.639l-12.283.469Z" transform="translate(436.772 -275.451)"/></g><g transform="translate(1.919 10.36)"><path class="bn" d="M-436.219,288.727a.67.67,0,0,1-.67-.648.671.671,0,0,1,.648-.692l14.585-.469a.671.671,0,0,1,.691.648.67.67,0,0,1-.648.692l-14.585.469Z" transform="translate(436.889 -286.918)"/></g></g><path class="bo" d="M-325.426,325.248l-.945,10.465s8.02.9,9.185,2.14l2.331-10.631Z" transform="translate(384.13 -289.843)"/><path class="bo" d="M-394.209,289.981c.108.354.766,5.271.766,5.271l12.418-2.89-1.405-4.865Z" transform="translate(419.927 -269.922)"/><path class="bo" d="M-382.422,309.76a22.467,22.467,0,0,1,1.132,2.79l8.429-2.068-.918-3.207Z" transform="translate(413.707 -280.359)"/></g><path class="bp" d="M-326.993,197.461l0,0h0Z" transform="translate(-110.856 -26.011)"/><g transform="translate(-447.6 170.347)"><path class="s" d="M-345.725,197.629a2.138,2.138,0,0,0-1.757,1.377h0a4.694,4.694,0,0,0,1.135.368,5.083,5.083,0,0,0,1.682.034,6.784,6.784,0,0,0,2.58-.969h0C-342.3,198.461-344.134,197.278-345.725,197.629Z" transform="translate(347.554 -196.412)"/><path class="bp" d="M-345.913,195.25c-1.568.568-1.89,2.247-1.649,2.467h0a2.138,2.138,0,0,1,1.757-1.377c1.59-.351,3.426.832,3.637.81h0C-341.678,197.086-343.952,194.541-345.913,195.25Z" transform="translate(347.634 -195.126)"/><path class="bq" d="M-343.4,198.886a1.056,1.056,0,0,1-.235.663,5.083,5.083,0,0,1-1.682-.034,1.037,1.037,0,0,1-.211-.629,1.059,1.059,0,0,1,1.063-1.055A1.059,1.059,0,0,1-343.4,198.886Z" transform="translate(346.522 -196.553)"/></g><g transform="translate(-437.874 169.471)"><path class="s" d="M-325.843,195.685a2.339,2.339,0,0,0-.977.618c-.057.09-.095.158-.118.191l0,.006v0h0s.036.368,1.147.606a7.5,7.5,0,0,0,.914.135c.255.024.5.032.739.031a7.964,7.964,0,0,0,2.883-.554h0a7.193,7.193,0,0,0-1.523-.88A3.49,3.49,0,0,0-325.843,195.685Z" transform="translate(326.988 -194.396)"/><path class="bp" d="M-325.3,193.357c-1.307.335-1.927,1.674-1.695,2.018l0,0a.664.664,0,0,1,.118-.191,2.339,2.339,0,0,1,.977-.618,3.49,3.49,0,0,1,3.063.15,7.191,7.191,0,0,1,1.523.88h0C-320.948,194.551-323.425,192.879-325.3,193.357Z" transform="translate(327.041 -193.273)"/><path class="bq" d="M-322.759,196.708a1.025,1.025,0,0,1-.263.732c-.238,0-.485-.008-.739-.031a7.506,7.506,0,0,1-.914-.135,1,1,0,0,1-.144-.478,1.032,1.032,0,0,1,.986-1.074A1.031,1.031,0,0,1-322.759,196.708Z" transform="translate(325.869 -194.565)"/></g><path class="s" d="M-337.183,212.938a12.123,12.123,0,0,0,6.051-.545,3.151,3.151,0,0,1-3.215,2.73A2.8,2.8,0,0,1-337.183,212.938Z" transform="translate(-105.481 -33.891)"/><g transform="translate(-408.196 330.948)"><path class="a" d="M-253.678,540.717c0,.217-7.706,1.083-10.445-.72-.146-.1-.095-.417.106-.848.679-1.459,3.058-4.2,5.226-3.977,2.09.214,3.9,3.06,4.69,4.592A5.426,5.426,0,0,1-253.678,540.717Z" transform="translate(264.207 -535.159)"/><path class="b" d="M-253.678,545.174c0,.217-7.706,1.083-10.445-.72-.146-.1-.095-.417.106-.848a52.8,52.8,0,0,0,9.916.615A5.424,5.424,0,0,1-253.678,545.174Z" transform="translate(264.207 -539.616)"/></g><g transform="translate(-491.29 218.471)"><path class="br" d="M-440.133,297.416c-.154,1.234,4.592,4.323,5.2,3.53S-439.916,295.675-440.133,297.416Z" transform="translate(440.137 -297.017)"/><path class="bs" d="M-439.347,302.812c-.168.781,5.432,4.754,6.009,3.531S-438.944,300.939-439.347,302.812Z" transform="translate(439.722 -299.824)"/><path class="bt" d="M-438.214,306.927c-.081.887,5.619,5.4,6.2,4.106S-438,304.55-438.214,306.927Z" transform="translate(439.123 -301.922)"/><path class="bu" d="M-438.231,310.9c-.364,1,6.413,6.251,6.556,4.81S-437.583,309.111-438.231,310.9Z" transform="translate(439.138 -304.145)"/></g><path class="bv" d="M-290.95,276.9c-.467,1.011-1.377.084-1.453.006a2.12,2.12,0,0,1,.211,2.016.557.557,0,0,1-.935.173,1.543,1.543,0,0,1,.34,1.7c-.54.958-.934.988-.934.988a.961.961,0,0,1-.114.271c-.348.579-1.225.49-2.464-.271s-2.53-2.617-2.465-3.7a.946.946,0,0,1,.088-.367c.361-.733,1.36.285,1.452.383-.1-.145-1.587-2.187-.858-3.074.636-.771,2.032,1.009,2.464,1.6-.579-.942-1.29-3.652-.789-4.333s2.2,2.133,2.324,2.354c-.162-.27-.735-1.891-.735-1.891-.789-2.377,1-1.567,1.545-.7S-290.464,275.845-290.95,276.9Z" transform="translate(-125.752 -64.922)"/><path class="bw" d="M-476.445,500.532l4.225,10.878,14.98-6.283-4.465-8.99Z" transform="translate(-31.994 -183.62)"/><path class="bx" d="M-470.273,503.465l2.761,7.488,10.9-4.606-2.877-6.706Z" transform="translate(-35.25 -185.469)"/><path class="by" d="M-411.55,492.451a5.117,5.117,0,0,1-5.116,5.116,5.083,5.083,0,0,1-2.986-.964c-.065-.048-.128-.095-.19-.145a5.1,5.1,0,0,1-1.766-2.7c-.013-.045-.023-.091-.034-.138a4.984,4.984,0,0,1-.136-1.17,5.114,5.114,0,0,1,5.113-5.115,5.1,5.1,0,0,1,2.821.847c.09.061.181.124.267.191a5.1,5.1,0,0,1,1.9,2.93c.017.082.035.164.05.247A5.16,5.16,0,0,1-411.55,492.451Z" transform="translate(-60.84 -178.975)"/><g transform="translate(-483.682 307.3)"><path class="bz" d="M-411.675,491.267a6.176,6.176,0,0,1-6.177,6.176,6.176,6.176,0,0,1-6.176-6.176,6.177,6.177,0,0,1,6.176-6.177A6.177,6.177,0,0,1-411.675,491.267Z" transform="translate(424.028 -485.09)"/><path class="ca" d="M-413.577,488.374c-1.586,1.059-6.029,4.026-8.031,5.386a5.043,5.043,0,0,1-.171-1.308,5.114,5.114,0,0,1,5.113-5.115A5.093,5.093,0,0,1-413.577,488.374Z" transform="translate(422.841 -486.275)"/><path class="cb" d="M-411.477,492.5l-8.022,5.053a5.121,5.121,0,0,1-1.956-2.844c-.013-.045-.023-.091-.034-.138l7.8-5.438c.09.061.181.124.267.191A5.1,5.1,0,0,1-411.477,492.5Z" transform="translate(422.689 -487.221)"/><path class="cc" d="M-409.386,496.884A5.117,5.117,0,0,1-414.5,502a5.083,5.083,0,0,1-2.986-.964c-.065-.048-.128-.095-.19-.145l8.162-5.155c.017.082.035.164.05.247A5.162,5.162,0,0,1-409.386,496.884Z" transform="translate(420.677 -490.708)"/></g><path class="cd" d="M-492.757,470.145c-5.146,5.373-13.427,17.489-5.087,40l-6.7.236-3.112.11-.134-2.362-2.094-36.863-6.812-4.7,29.128-1.614Z" transform="translate(-10.753 -167.163)"/><g transform="translate(-495.928 290.748)"><g transform="translate(0 2.501)"><g transform="translate(2.506 0.775)"><path class="by" d="M-444.329,463.1a.324.324,0,0,1-.184-.06.325.325,0,0,1-.086-.438c.147-.319.57-2.956.9-5.336a.325.325,0,0,1,.365-.278.325.325,0,0,1,.277.366,39.4,39.4,0,0,1-1,5.61A.326.326,0,0,1-444.329,463.1Z" transform="translate(444.65 -456.982)"/></g><g transform="translate(21.287)"><path class="by" d="M-402.617,460.6a.324.324,0,0,1-.3-.2l-1.945-4.609a.323.323,0,0,1,.173-.424.323.323,0,0,1,.424.172l1.945,4.609a.323.323,0,0,1-.172.424A.325.325,0,0,1-402.617,460.6Z" transform="translate(404.886 -455.341)"/></g><path class="ce" d="M-444.627,469.059a.545.545,0,0,1-.53.561l-4.238.122a.546.546,0,0,1-.561-.529h0a.547.547,0,0,1,.53-.562l4.238-.122a.547.547,0,0,1,.561.53Z" transform="translate(449.956 -462.3)"/><path class="ce" d="M-399.038,465.151a.545.545,0,0,1-.491.6l-4.22.4a.544.544,0,0,1-.595-.491h0a.545.545,0,0,1,.491-.6l4.22-.405a.546.546,0,0,1,.6.492Z" transform="translate(425.888 -460.257)"/></g><g transform="translate(2.762 0)"><path class="aq" d="M-424.486,453.892a.816.816,0,0,1-.13.122.966.966,0,0,1-1.241-.024c-.026-.021-3.009-2.481-8.671-1.915-6.334.636-7.735,2.789-7.748,2.81a.969.969,0,0,1-.86.519.956.956,0,0,1-.452-.11c-.024-.013-.046-.025-.068-.039A.973.973,0,0,1-444,453.98c.164-.315,1.83-3.092,9.273-3.837,6.546-.657,9.993,2.254,10.138,2.379A.971.971,0,0,1-424.486,453.892Z" transform="translate(444.107 -450.046)"/><path class="cf" d="M-424.11,455.1a.966.966,0,0,1-1.241-.024c-.026-.021-3.009-2.481-8.671-1.915-6.334.636-7.735,2.789-7.748,2.81a.969.969,0,0,1-.86.519.956.956,0,0,1-.452-.11c-.024-.013-.046-.025-.068-.039a14.678,14.678,0,0,1,9.03-4.147C-428.281,451.618-425.279,453.882-424.11,455.1Z" transform="translate(443.601 -451.13)"/></g></g><g transform="translate(-537.075 236.786)"><g transform="translate(0 60.527)"><path class="cg" d="M-528.057,475.436s.034.717.132,2.059l-1.534,1.411a29.008,29.008,0,0,1,2.486,8.444c.032.274.064.553.1.835.2,1.667.358,3.282.487,4.809a26.173,26.173,0,0,1-.2,6.407,6.1,6.1,0,0,1-2.115,2.684c-.321.213-.595.314-.755.254-.535-.2.066-1.936.066-2.2a43.6,43.6,0,0,0-1.8-7.811c-1.4-4.54-5.337-15.622-5.337-15.622-.869-2.2-.735-2.269.733-3.8s9.747-9.15,10.482-8.947a25.081,25.081,0,0,1,4.3,2.138l.183.106C-521.994,467.1-527.438,473.761-528.057,475.436Z" transform="translate(537.075 -463.947)"/><path class="r" d="M-523.239,477.973s.034.717.132,2.059l-1.534,1.411a29.012,29.012,0,0,1,2.486,8.444c.032.274.064.553.1.835.2,1.667.358,3.282.487,4.809a26.177,26.177,0,0,1-.2,6.407,6.1,6.1,0,0,1-2.115,2.684c1.712-4.252,1.27-6.5.647-12.814a28.032,28.032,0,0,0-4.707-12.168c3.807-1.351,11.306-10.886,11.621-10.886.062.036.09.073.15.11C-517.333,469.767-522.621,476.3-523.239,477.973Z" transform="translate(532.258 -466.483)"/><g transform="translate(3.113 35.647)"><path class="ch" d="M-522.226,541.715c0,.1-.35,1.12-2.1,2.938-.224.234-.478.483-.749.739-1.859,1.753-4.577,3.821-5.21,3.449a.417.417,0,0,1-.194-.436.038.038,0,0,1,0-.015,5.518,5.518,0,0,1,.909-1.8h0c.3-.465.625-.963.9-1.452a30.811,30.811,0,0,0,2.754-5.173,1.828,1.828,0,0,0,.859.7.478.478,0,0,0,.247.042c.685-.053,1.624-1.286,1.624-1.286a5.322,5.322,0,0,1,.731,1.522A6.611,6.611,0,0,1-522.226,541.715Z" transform="translate(530.485 -539.42)"/><path class="ci" d="M-522.226,543.416c0,.1-.35,1.12-2.1,2.938-1.768,1.835-5.233,4.614-5.958,4.188a.417.417,0,0,1-.194-.436,12.3,12.3,0,0,0,4.126-2.751,25.975,25.975,0,0,0,3.9-4.712A6.607,6.607,0,0,1-522.226,543.416Z" transform="translate(530.485 -541.121)"/><path class="cj" d="M-528.629,555.473a7.247,7.247,0,0,1-1.845.925,5.517,5.517,0,0,1,.909-1.8h0A3.867,3.867,0,0,1-528.629,555.473Z" transform="translate(530.479 -547.428)"/><g transform="translate(3.335 1.627)"><g transform="translate(0.935)"><path class="ck" d="M-519.976,543.632c-1.188,0-1.451-.6-1.461-.629a.1.1,0,0,1,.055-.131.1.1,0,0,1,.13.053c.01.024.236.507,1.276.507a.1.1,0,0,1,.1.1A.1.1,0,0,1-519.976,543.632Z" transform="translate(521.445 -542.865)"/></g><g transform="translate(0.518 0.935)"><path class="ck" d="M-520.943,545.679h-.009a3.043,3.043,0,0,1-1.341-.657.1.1,0,0,1-.013-.141.1.1,0,0,1,.141-.013,2.9,2.9,0,0,0,1.229.612.1.1,0,0,1,.091.109A.1.1,0,0,1-520.943,545.679Z" transform="translate(522.328 -544.844)"/></g><g transform="translate(0 1.903)"><path class="ck" d="M-521.988,547.845a.1.1,0,0,1-.032-.005,4.93,4.93,0,0,1-1.367-.768.1.1,0,0,1-.015-.14.1.1,0,0,1,.141-.015,4.873,4.873,0,0,0,1.3.733.1.1,0,0,1,.063.127A.1.1,0,0,1-521.988,547.845Z" transform="translate(523.423 -546.894)"/></g></g><path class="cl" d="M-516.185,541.715c0,.1-.35,1.12-2.1,2.938-.224.234-.478.483-.749.739a7.135,7.135,0,0,0,.268-4.686c.685-.053,1.624-1.286,1.624-1.286a5.322,5.322,0,0,1,.731,1.522A6.632,6.632,0,0,1-516.185,541.715Z" transform="translate(524.444 -539.42)"/></g></g><g transform="translate(10.955 37.888)"><path class="cm" d="M-501.6,421.3a38.858,38.858,0,0,1-6.343,5.339c-2.669,1.536-5.94-.4-5.94-.4a5.041,5.041,0,0,0,.461-.3c2.781-2.011,8.093-9.026,8.494-9.517a2.449,2.449,0,0,1,.365-.409,28.119,28.119,0,0,1,1.829,2.82A14.579,14.579,0,0,1-501.6,421.3Z" transform="translate(513.881 -416.014)"/><path class="d" d="M-501.6,424.452a38.857,38.857,0,0,1-6.343,5.339c-2.669,1.536-5.94-.4-5.94-.4a5.041,5.041,0,0,0,.461-.3c5.96.913,9.3-4.254,10.687-7.105A14.58,14.58,0,0,1-501.6,424.452Z" transform="translate(513.881 -419.165)"/></g><path class="cn" d="M-515.589,514.333c.2,1.665.358,3.282.487,4.809a55.024,55.024,0,0,0-.586-5.646Q-515.64,513.908-515.589,514.333Z" transform="translate(525.789 -429.566)"/><path class="co" d="M-515.589,514.333c.2,1.665.358,3.282.487,4.809a55.024,55.024,0,0,0-.586-5.646Q-515.64,513.908-515.589,514.333Z" transform="translate(525.789 -429.566)"/><path class="cp" d="M-517.981,477.946s.034.716.132,2.059l10.216-9.4s-1.447-.919-3.128-1.9C-511.919,469.609-517.361,476.272-517.981,477.946Z" transform="translate(526.999 -405.93)"/><path class="cq" d="M-509.95,487.5c.334,4.472-1.222,10.16-3.078,14.432a29.153,29.153,0,0,1-2.013,4.048c-.431.642-.637.659-.671.292-.052-.583-.106-5.061-.6-10.882a54.455,54.455,0,0,0-.585-5.644c-.521-4.485-.807-7.863-.952-9.856-.1-1.342-.132-2.059-.132-2.059.619-1.674,6.063-8.339,7.22-9.242.09-.07.156-.11.19-.106,2.031.21,4.312,1.927,6.022,3.513a30.717,30.717,0,0,1,2.63,2.762c-.829.469-9.053,6.478-9.053,6.478A24.937,24.937,0,0,1-509.95,487.5Z" transform="translate(526.999 -405.812)"/><path class="cr" d="M-459.022,421.077a12.554,12.554,0,0,1-6.716,1.686,29.915,29.915,0,0,0,1.256-20.122c-2.177-7.129-4.26-11.113-5.478-13.059a11.738,11.738,0,0,0-1.1-1.546c.4-.2,4.028-1.669,8.458,2.738s8.435,11.215,9.437,17.424A12.969,12.969,0,0,1-459.022,421.077Z" transform="translate(502.24 -363.154)"/><path class="cs" d="M-464.507,424.931a29.915,29.915,0,0,0,1.256-20.122c-2.177-7.129-4.26-11.113-5.478-13.059,1.24.859,10.184,9.639,10.535,18.48.252,6.379-.3,11.125.4,13.014A12.553,12.553,0,0,1-464.507,424.931Z" transform="translate(501.009 -365.322)"/><path class="ct" d="M-479.565,423.66a15.473,15.473,0,0,0-4.741-2.991,54.543,54.543,0,0,0-12.367-3.318c2.2-2.592,3.455-6.7,4.162-10.6a37.7,37.7,0,0,0,1.462-8.325v-3.339a25.2,25.2,0,0,0,4.032-3.09c.038-.038.074-.076.108-.113a18.284,18.284,0,0,0,2.333-3.4c.35.553,7.43,8.445,8.332,19.11S-479.565,423.66-479.565,423.66Z" transform="translate(515.755 -363.595)"/><path class="cu" d="M-468.777,423.66a15.474,15.474,0,0,0-4.741-2.991,52.56,52.56,0,0,1,3.284-10.586c3.783-9.621-3.435-16.365-4.737-16.848a5.772,5.772,0,0,1-1.26-1.24c.038-.038.074-.076.108-.113a18.285,18.285,0,0,0,2.333-3.4c.35.553,7.43,8.445,8.332,19.11S-468.777,423.66-468.777,423.66Z" transform="translate(504.968 -363.595)"/><path class="cv" d="M-488.139,455.92a9.7,9.7,0,0,1-2.64,3.088c-.05.043-.1.088-.154.13a64.892,64.892,0,0,1-8.315,5.66c-.247-.278-.489-.543-.731-.8-.04-.046-.084-.091-.13-.136-.589-.617-1.158-1.16-1.7-1.637-3.876-3.4-6.437-3.469-6.437-3.469a30.182,30.182,0,0,0-4.673-2.263c.076-.043,7.673-6.888,7.673-6.888a41.018,41.018,0,0,1,11.931,2.774l.192.084a19.732,19.732,0,0,1,1.789.887,13.813,13.813,0,0,1,2,1.343l.156.13A5.484,5.484,0,0,1-488.139,455.92Z" transform="translate(524.329 -395.854)"/><path class="cw" d="M-489.405,398.708v0a9.505,9.505,0,0,1-.315,1.762v3.339a32.534,32.534,0,0,1-1.1,6.978c-.188.744-.333,1.25-.36,1.347,0,.012-.006.02-.006.02a14.4,14.4,0,0,0-1.092-2.386,27.971,27.971,0,0,0-1.872-2.9l0,0c.134-.2.292-.436.469-.706a58.01,58.01,0,0,0,3.521-5.942c.066-.138.128-.275.188-.407C-489.72,398.81-489.42,398.622-489.405,398.708Z" transform="translate(514.426 -368.984)"/><path class="cx" d="M-480.625,391.882a18.31,18.31,0,0,0,2.332-3.4s-5.734,7.336-6.157,4.845a9.58,9.58,0,0,1-.315,1.764A24.517,24.517,0,0,0-480.625,391.882Z" transform="translate(509.471 -363.595)"/><path class="cy" d="M-480.826,380.016a8.325,8.325,0,0,0-.667-.584s-2.695,3.753-2.638,6.143a9.931,9.931,0,0,0,2.371-5.342A5.724,5.724,0,0,0-480.826,380.016Z" transform="translate(509.138 -358.822)"/><g transform="translate(24.706 21.195)"><path class="cz" d="M-478.293,384.357a18.287,18.287,0,0,1-2.333,3.4,9.818,9.818,0,0,1-.743.722,29.229,29.229,0,0,1-3.4,2.482,9.5,9.5,0,0,0,.315-1.762c.036-.395.054-.776.058-1.132a16.157,16.157,0,0,0-.072-1.844,9.935,9.935,0,0,0,2.371-5.342,5.78,5.78,0,0,0,.933-.216A21.345,21.345,0,0,1-478.293,384.357Z" transform="translate(484.766 -380.67)"/><path class="r" d="M-477.957,384.357a18.286,18.286,0,0,1-2.333,3.4,9.818,9.818,0,0,1-.743.722,5.942,5.942,0,0,0-3.024-.412,16.174,16.174,0,0,0-.072-1.844,9.935,9.935,0,0,0,2.371-5.342,5.778,5.778,0,0,0,.933-.216A21.343,21.343,0,0,1-477.957,384.357Z" transform="translate(484.43 -380.67)"/></g><path class="da" d="M-495.5,363.671a3.706,3.706,0,0,1-2.8,2.788,5.775,5.775,0,0,1-.933.216,9.935,9.935,0,0,1-2.371,5.342,8.287,8.287,0,0,1-2.9,2.468,7.4,7.4,0,0,1-5.117-.585,11.052,11.052,0,0,1-3.361-2.485,13,13,0,0,1-2.355-3.585c-.229-.506-.429-1.015-.6-1.52a24.8,24.8,0,0,1-1.1-4.893c-.066-.509-.108-.927-.144-1.218a4.809,4.809,0,0,1,.957-3.813c1.792-.729,3.915-1.544,5.778-2.493a25.98,25.98,0,0,1,5.883.03,12.463,12.463,0,0,1,4.606,8.346,3.86,3.86,0,0,1,1.8-2.538C-496.7,359-495.094,361.066-495.5,363.671Z" transform="translate(526.61 -345.263)"/><path class="d" d="M-495.5,363.671a3.706,3.706,0,0,1-2.8,2.788,5.775,5.775,0,0,1-.933.216,9.935,9.935,0,0,1-2.371,5.342,8.287,8.287,0,0,1-2.9,2.468,7.4,7.4,0,0,1-5.117-.585c6.441,1.395,9.483-6.053,9.157-9.863-.366-4.272-4.039-9.013-4.039-9.013s-2.47,3.038-4.028,3.439-1.48-.567-1.48-.567-1.635,2.169-3.069,2.536-1.338-.549-1.338-.549a3.734,3.734,0,0,1-2.626,1.534c-.066-.509-.108-.927-.144-1.218a4.809,4.809,0,0,1,.957-3.813c1.792-.729,3.915-1.544,5.778-2.493a25.98,25.98,0,0,1,5.883.03,12.463,12.463,0,0,1,4.606,8.346,3.86,3.86,0,0,1,1.8-2.538C-496.7,359-495.094,361.066-495.5,363.671Z" transform="translate(526.61 -345.263)"/><path class="db" d="M-490.543,354.735c.006-.02.008-.028.01-.026S-490.552,354.809-490.543,354.735Z" transform="translate(512.522 -345.775)"/><path class="db" d="M-502.269,350.262c-.486.142-1.936,3.138-1.936,3.138-.066-3.2-4.431-9.814-4.53-8.646-.531,2-3.723,3.629-4.606,3.439-.331-.072-.324-.435-.178-.871.03-.088.066-.179.106-.273-.062.087-.126.171-.19.255l0,0a8.353,8.353,0,0,1-3.137,2.624c-1.39.533-1.815-.534-1.815-.534-1.069,1.736-4.34,2.337-5.942.867a1.252,1.252,0,0,1-.232-1.816,1.926,1.926,0,0,1,.13-.166c.018-.023.036-.044.056-.067a4.405,4.405,0,0,1,1.048-.821.012.012,0,0,1,0-.007,1.046,1.046,0,0,1-.124-.185c-.647-1.167,1.532-2.324,2.464-2.757.172-.078.3-.133.362-.156l.04-.018a2.359,2.359,0,0,1-1.953-2.321,1.746,1.746,0,0,1,.026-.218,2.435,2.435,0,0,1,.285-.783,4.993,4.993,0,0,1,1.642-1.632,5.431,5.431,0,0,1,1-.531,5.2,5.2,0,0,1,.879-.272h0a7.026,7.026,0,0,1,4.474.691c.185.09.341.174.463.244s.2.12.254.154c-.072-.055-.2-.153-.37-.284h0c-.991-.771-3.275-2.672-2.686-3.411.611-.768,3.164,2.675,4.072,3.95.108.15.192.27.248.35.04.058.064.1.072.106-.006-.012-.02-.043-.042-.091-.028-.067-.074-.168-.127-.294v0c-.349-.853-1.041-2.866-.2-3.7.008-.007.014-.014.022-.02a.963.963,0,0,1,.2-.15.958.958,0,0,1,.148-.076c1.46-.619,3.4,2.98,3.969,4.128.018.036.036.07.05.1l.012.022c.018.036.032.066.044.094s.024.046.032.064a.482.482,0,0,0,.024.05.13.13,0,0,0,.006.014c.07-.019.138-.04.208-.058.152-.04.3-.07.454-.1.07-.01.14-.02.21-.027h0a4.181,4.181,0,0,1,3.449,1.206,7,7,0,0,1,.795.883C-501.118,344.938-501.294,349.978-502.269,350.262Z" transform="translate(530.714 -335.795)"/><path class="dc" d="M-498.322,368.871c-.089.444.951,1.3,2.854.7s2.354-1.452.651-1.3S-498.172,368.12-498.322,368.871Z" transform="translate(516.628 -352.922)"/><g transform="translate(27.623 24.882)"><path class="dd" d="M-466.322,412.809l-.254,2.237s-7.561-3.137-10.244-10.413a37.557,37.557,0,0,1-1.208-3.809c-1.256-5.009-.473-8.376,2.994-12.347l1.472,1.169a11.116,11.116,0,0,0-3.008,5.439.037.037,0,0,1,0,.01,10.022,10.022,0,0,0,.209,5.066C-475.035,404.633-470.692,411.743-466.322,412.809Z" transform="translate(478.591 -388.477)"/><path class="cs" d="M-465.694,420.2l-.254,2.237s-7.561-3.137-10.244-10.413a37.565,37.565,0,0,1-1.208-3.809,39.14,39.14,0,0,1,1.454-5.729,10.021,10.021,0,0,0,.209,5.066C-474.406,412.028-470.064,419.138-465.694,420.2Z" transform="translate(477.963 -395.871)"/></g><path class="dc" d="M-516.9,370.39c.558.108,1.636-.922,2.907-1.439s1.156-.182,1.271-.517-1.382-.8-2.6-.087C-516.774,369.2-517.2,370.331-516.9,370.39Z" transform="translate(526.476 -352.775)"/><path class="de" d="M-478.016,370.539c-.5.194-1.852,1.6-1.8,2.549,0,0,1,.85,1.7,0s-.451-1.354-.451-1.354Z" transform="translate(506.862 -354.129)"/><g transform="translate(29.313 32.134)"><path class="cw" d="M-468.059,411.569a8.8,8.8,0,0,1-.076,1.166s-1.038.215-2.43.4a24.66,24.66,0,0,1-4.448.263s.022-.421.064-1.062c.086-1.305.259-3.525.5-4.979.315-1.871.98-3.519,2.546-3.531a2.862,2.862,0,0,1,.825.127C-469.171,404.512-468.041,408.609-468.059,411.569Z" transform="translate(475.013 -403.83)"/><path class="df" d="M-468.059,420.215a8.8,8.8,0,0,1-.076,1.166,32.853,32.853,0,0,1-6.878.667s.022-.421.064-1.062A32.089,32.089,0,0,0-468.059,420.215Z" transform="translate(475.013 -412.476)"/></g><path class="df" d="M-490.821,419.143c-.188.744-.333,1.25-.36,1.348,0,.012-.006.02-.006.02a22.927,22.927,0,0,0-2.964-5.288l0,0c.134-.2.292-.436.469-.706A14.186,14.186,0,0,1-490.821,419.143Z" transform="translate(514.426 -377.335)"/><path class="d" d="M-506.665,491.42c.334,4.472-1.222,10.16-3.079,14.432a29.15,29.15,0,0,1-2.013,4.048c1.774-4.9,3.128-15.025,3.218-19.119.1-4.506-1.6-5.758-1.6-5.758,1.129-1.085,7.558-7.438,8.876-9.1a30.711,30.711,0,0,1,2.63,2.762c-.829.469-9.053,6.478-9.053,6.478A24.937,24.937,0,0,1-506.665,491.42Z" transform="translate(523.714 -409.736)"/><path class="dg" d="M-471.063,387.435a2.59,2.59,0,0,0,.6.575c2.772-1.776,7.482,1.892,9.416,4.9,3.389,5.277,4.111,6.726,4.967,6.273,0,0,1.507-1.555-5.653-9.278C-467.07,384.149-471.063,387.435-471.063,387.435Z" transform="translate(502.241 -362.552)"/><path class="dh" d="M-475.725,460.1c-1.37,3.354-11.11,8.878-11.11,8.878a29.17,29.17,0,0,0-2.561-2.567c2.72-1.746,8.4-6.953,10.474-8.874A9.132,9.132,0,0,1-475.725,460.1Z" transform="translate(511.915 -400.039)"/><path class="dh" d="M-503.226,463.157l5.688-5.278s-4.774,4.141-5.8,5.136Z" transform="translate(519.274 -400.217)"/><path class="di" d="M-477.236,461.045a10.854,10.854,0,0,0,.771,1.064c-.05.043-.1.088-.154.13a11.48,11.48,0,0,1-.759-1.043,20.307,20.307,0,0,1-1.492,1.4,36.1,36.1,0,0,1-3.791,2.814c-.673.43-1.36.833-2.057,1.221-.3.166-.631.308-.947.472-.04-.046-.084-.091-.13-.136.234-.118.477-.227.7-.357.681-.39,1.37-.767,2.033-1.186a36.026,36.026,0,0,0,3.778-2.746,22.053,22.053,0,0,0,1.786-1.666A9.767,9.767,0,0,1-479,455.485l.192.084a9.551,9.551,0,0,0,1.46,5.293,17.875,17.875,0,0,0,2.33-3.062l.156.13A17.806,17.806,0,0,1-477.236,461.045Z" transform="translate(510.016 -398.954)"/><path class="dj" d="M-464.58,411.569a8.808,8.808,0,0,1-.076,1.166s-1.038.215-2.43.4a29.669,29.669,0,0,0-1.334-9.309,2.861,2.861,0,0,1,.825.127C-465.691,404.512-464.562,408.609-464.58,411.569Z" transform="translate(500.846 -371.696)"/><g transform="translate(7.999 47.417)"><path class="dk" d="M-510.924,445.064a19.951,19.951,0,0,1-3.227-.363c-1.618-.265-3.186-.578-3.186-.578a37.3,37.3,0,0,1-2.8-7.061,13.214,13.214,0,0,0,1.613.467,23.62,23.62,0,0,0,5.143.519Z" transform="translate(520.14 -436.649)"/><path class="dl" d="M-502.668,444.579l-.819.807-1.446-4.325-.495-1.482-.4-1.184.949-.674.264.821.6,1.862Z" transform="translate(512.585 -436.997)"/><path class="dm" d="M-513.371,437.587a17.169,17.169,0,0,1-6.754-.984l.806-.414s4.77,1.018,6.9.723Z" transform="translate(520.132 -436.188)"/><path class="dn" d="M-514.151,444.7c-1.618-.265-3.186-.578-3.186-.578a37.3,37.3,0,0,1-2.8-7.061,13.214,13.214,0,0,0,1.613.467A22.993,22.993,0,0,0-514.151,444.7Z" transform="translate(520.14 -436.649)"/><path class="do" d="M-503.568,441.321l-.921.657-.495-1.482c.25-.3.553-.693.817-1.038Z" transform="translate(512.142 -437.914)"/></g><path class="dj" d="M-487.312,398.708v0a9.5,9.5,0,0,1-.315,1.762v3.339a32.536,32.536,0,0,1-1.1,6.978c-.189.744-.333,1.25-.36,1.347,0,.012-.006.02-.006.02a14.4,14.4,0,0,0-1.092-2.386c1.34-2.544,2.015-6.97,2.115-9.551.066-.138.128-.275.188-.407C-487.626,398.81-487.326,398.622-487.312,398.708Z" transform="translate(512.332 -368.984)"/><g transform="translate(5.701 98.285)"><path class="ch" d="M-515.579,547.2c-.02.311-.749,1.226-2.193,2.472-.294.256-.621.527-.975.807-2.091,1.653-5.32,3.531-6.095,2.931a.419.419,0,0,1-.162-.335,2.911,2.911,0,0,1,.687-1.464c.575-.805,1.386-1.7,1.928-2.384a34.3,34.3,0,0,0,2.9-4.96s-.012.921.28,1.131c.2.142.5-.126.789-.474a8.571,8.571,0,0,0,.7-1.038,13.562,13.562,0,0,0,1.812,2.705A1.59,1.59,0,0,1-515.579,547.2Z" transform="translate(525.005 -543.889)"/><path class="ci" d="M-515.579,550.226c-.024.375-1.077,1.627-3.168,3.279s-5.32,3.531-6.095,2.931A.419.419,0,0,1-525,556.1c3.377-.378,8.14-5.251,9.093-6.483A1.59,1.59,0,0,1-515.579,550.226Z" transform="translate(525.005 -546.912)"/><path class="cj" d="M-522.98,561.07a4.077,4.077,0,0,1-2.025.638,2.911,2.911,0,0,1,.687-1.464A4.77,4.77,0,0,1-522.98,561.07Z" transform="translate(525.005 -552.519)"/><g transform="translate(3.651 2.237)"><g transform="translate(1.085)"><path class="ck" d="M-513.561,549.2a2.548,2.548,0,0,1-1.374-.388.1.1,0,0,1-.024-.14.1.1,0,0,1,.139-.024,2.391,2.391,0,0,0,1.36.35.1.1,0,0,1,.1.1.1.1,0,0,1-.1.1Z" transform="translate(514.977 -548.625)"/></g><g transform="translate(0.742 0.818)"><path class="ck" d="M-514.427,551.375a.09.09,0,0,1-.027,0,1.976,1.976,0,0,1-1.244-.86.122.122,0,0,1,.021-.12.1.1,0,0,1,.141-.01.1.1,0,0,1,.034.085,1.962,1.962,0,0,0,1.1.712.1.1,0,0,1,.069.125A.1.1,0,0,1-514.427,551.375Z" transform="translate(515.704 -550.357)"/></g><g transform="translate(0 1.936)"><path class="ck" d="M-515.844,553.576h0a2.4,2.4,0,0,1-1.4-.68.1.1,0,0,1,0-.142.1.1,0,0,1,.141,0,2.236,2.236,0,0,0,1.264.622.1.1,0,0,1,.1.1A.1.1,0,0,1-515.844,553.576Z" transform="translate(517.275 -552.724)"/></g></g><path class="cl" d="M-508.221,547.2c-.02.311-.749,1.226-2.193,2.472a11.906,11.906,0,0,0-.647-4.748,8.575,8.575,0,0,0,.7-1.038,13.56,13.56,0,0,0,1.812,2.705A1.591,1.591,0,0,1-508.221,547.2Z" transform="translate(517.647 -543.889)"/></g><g transform="translate(13.971 41.039)"><path class="dp" d="M-485.276,422.684c0,2.4-1.24,6-3.94,9.348-3.605,4.469-11.817,6.408-11.817,6.408l-1.868.467a5.328,5.328,0,0,1-3.836-.6l0,0c-.16-.118-.258-.234-.266-.333-.022-.248.358-.272.8-.218l.124.017a.5.5,0,0,0,.086.012l.032.007c.1.017.206.038.307.058l-.126-.036s0,0,0,0c-.751-.23-1.708-.616-1.708-1.105a.062.062,0,0,1,.006-.027c.122-.4,2.868.093,2.868.093l-.38-.093a.011.011,0,0,1-.008,0c-1.574-.394-2.6-.789-2.379-1.148a.418.418,0,0,1,.132-.124c.623-.41,4.206.084,4.206.084-.088-.017-.174-.036-.256-.06-1.153-.328-1.875-1.346-1.4-1.467a.624.624,0,0,1,.274.006c1,.2,3.671.335,3.671.335,4.406-1.737,8.28-9.014,8.612-10.95l4.451-.431Z" transform="translate(507.495 -422.684)"/><path class="d" d="M-484.428,422.684c0,2.4-1.24,6-3.94,9.348-3.605,4.469-11.817,6.408-11.817,6.408l-1.868.467a5.328,5.328,0,0,1-3.836-.6,16.006,16.006,0,0,0,3.2.149c4.205-.125,11.416-4.38,13.869-7.359,2.273-2.762,2.011-6.94,1.963-8.176Z" transform="translate(506.647 -422.684)"/><path class="d" d="M-504.46,453.538s-.635-.015-1.322-.094c0,0,0,0,0,0-.751-.23-1.708-.616-1.708-1.105a.062.062,0,0,1,.006-.027A6.616,6.616,0,0,0-504.46,453.538Z" transform="translate(507.495 -438.317)"/><path class="d" d="M-503.563,450.989a2.72,2.72,0,0,1-1.354.034.011.011,0,0,1-.008,0c-1.574-.394-2.6-.789-2.379-1.148a9.6,9.6,0,0,0,1.789.665A13.829,13.829,0,0,0-503.563,450.989Z" transform="translate(507.41 -437.031)"/><path class="d" d="M-499.675,448.075a3.652,3.652,0,0,1-.685-.052c-1.153-.328-1.875-1.346-1.4-1.467A3.167,3.167,0,0,0-499.675,448.075Z" transform="translate(504.548 -435.282)"/></g><path class="dq" d="M-520.766,439.588c-.219.822,2.3,2.3,2.478,1.777S-520.52,438.666-520.766,439.588Z" transform="translate(528.476 -390.447)"/><path class="dr" d="M-520.906,441.963c-.1,1.051,2.373,2.154,2.615,1.585S-520.832,441.182-520.906,441.963Z" transform="translate(528.545 -391.717)"/><path class="ds" d="M-520.525,444.787c0,.636,2.428,1.649,2.578,1.1S-520.523,443.663-520.525,444.787Z" transform="translate(528.342 -393.108)"/><path class="dt" d="M-519.624,447.277c0,.452,2.031,1.181,2.026.659S-519.624,446.648-519.624,447.277Z" transform="translate(527.866 -394.498)"/><g transform="translate(41.198 43.176)"><path class="dd" d="M-446.156,435.18a3.828,3.828,0,0,1-.422.164c-4.006,1.278-3.2-6.533-3.2-6.533s.661-.037,1.586-.185a11.531,11.531,0,0,0,4.218-1.414l0,0S-442.675,433.57-446.156,435.18Z" transform="translate(449.848 -427.209)"/><path class="dg" d="M-443,434.147a.651.651,0,0,1-.651.651.651.651,0,0,1-.651-.651.651.651,0,0,1,.651-.651A.651.651,0,0,1-443,434.147Z" transform="translate(446.922 -430.527)"/><path class="du" d="M-443.9,427.209l0,0a7.409,7.409,0,0,1-4.22,1.55,12.07,12.07,0,0,1-1.584.049s.651-.3,1.6-.634A15.91,15.91,0,0,1-443.9,427.209Z" transform="translate(449.775 -427.209)"/><path class="dv" d="M-446.156,436.263a3.828,3.828,0,0,1-.422.164c-4.006,1.278-3.2-6.533-3.2-6.533s.651-.3,1.6-.634c-.006.137-.012.287-.016.449,0,.043,0,.09,0,.136C-448.243,431.945-448.067,435.69-446.156,436.263Z" transform="translate(449.848 -428.291)"/></g><path class="dw" d="M-474.747,389.811a10.716,10.716,0,0,1,.723.83c-.05,0-3.346,3.305-3.163,7.135l-.553,1.7a9.415,9.415,0,0,1,.127-5.083A17.227,17.227,0,0,1-474.747,389.811Z" transform="translate(505.924 -364.299)"/><path class="dx" d="M-485.313,398.131a4.19,4.19,0,0,0-1,2.226,68.619,68.619,0,0,1-.135,8.844S-485.349,399.378-485.313,398.131Z" transform="translate(510.357 -368.689)"/><g transform="translate(19.056 16.916)"><path class="d" d="M-496.7,374.031s-.333-2.132,1.385-2.4,2.821,2.021,2.821,2.021S-495.25,374.677-496.7,374.031Z" transform="translate(496.728 -371.61)"/><g transform="translate(0.007 0.501)"><path class="s" d="M-492.373,374.928a7.456,7.456,0,0,1-1.58.607,4.3,4.3,0,0,1-1.476.13,2.147,2.147,0,0,1-1.066-.346,4.457,4.457,0,0,1,.559-.758,1.827,1.827,0,0,1,1.053-.5A3,3,0,0,1-492.373,374.928Z" transform="translate(496.598 -373.388)"/><path class="dy" d="M-492.883,375.214a.891.891,0,0,1-.128.464,4.3,4.3,0,0,1-1.476.13.9.9,0,0,1-.222-.594.913.913,0,0,1,.913-.913A.913.913,0,0,1-492.883,375.214Z" transform="translate(495.656 -373.531)"/><path class="bp" d="M-494.792,372.676a1.728,1.728,0,0,0-1.9,1.915c.1.106.23-.35.642-.746a1.84,1.84,0,0,1,1.054-.5,3,3,0,0,1,2.51.872A2.511,2.511,0,0,0-494.792,372.676Z" transform="translate(496.714 -372.671)"/></g></g><g transform="translate(11.001 17.865)"><path class="d" d="M-513.766,375.97s-.265-2.312,1.287-2.35c1.522-.037,2.119,2,1.942,2.271C-510.538,375.892-512.453,376.789-513.766,375.97Z" transform="translate(513.783 -373.62)"/><g transform="translate(0.016 0.659)"><path class="s" d="M-510.517,377.439a3.47,3.47,0,0,1-.9.445,2.548,2.548,0,0,1-1.655-.008,2.3,2.3,0,0,1-.678-.358,1.481,1.481,0,0,1,1.5-.98A2.516,2.516,0,0,1-510.517,377.439Z" transform="translate(513.747 -375.817)"/><path class="dy" d="M-510.657,377.764a.826.826,0,0,1-.052.316,2.548,2.548,0,0,1-1.655-.009.841.841,0,0,1-.049-.264.879.879,0,0,1,.858-.9A.877.877,0,0,1-510.657,377.764Z" transform="translate(513.044 -376.012)"/><path class="bp" d="M-512.378,375.018c-1.451.085-1.37,1.688-1.37,1.688a1.481,1.481,0,0,1,1.5-.975,2.522,2.522,0,0,1,1.724.9C-510.324,376.423-510.928,374.933-512.378,375.018Z" transform="translate(513.749 -375.015)"/></g></g><g transform="translate(16.316 17.752)"><path class="dz" d="M-501.48,379.189c-.719.118-.98-.166-.959-.947a6.235,6.235,0,0,1,.072-.756c.2-1.351-.451-3.6,0-4.1a19.458,19.458,0,0,1,1.5,2.4,4.105,4.105,0,0,1,.523,1.387v0A1.6,1.6,0,0,1-501.48,379.189Z" transform="translate(502.53 -373.381)"/><path class="d" d="M-501.38,383.427c-.719.118-.98-.166-.959-.947a1.248,1.248,0,0,0,1.308.2,1.63,1.63,0,0,0,.783-1.268A1.6,1.6,0,0,1-501.38,383.427Z" transform="translate(502.43 -377.619)"/></g><path class="ae" d="M-488.818,377.705c.324.3,2.038-.875,1.438-1.348S-489.421,377.154-488.818,377.705Z" transform="translate(511.686 -357.145)"/><path class="ae" d="M-513.17,381.387a.63.63,0,0,1-.719.489c-.229-.506-.429-1.016-.6-1.52C-513.857,380.468-513.11,381.191-513.17,381.387Z" transform="translate(525.158 -359.309)"/><path class="ea" d="M-513.607,360.166a8.354,8.354,0,0,1-3.137,2.624c-1.39.533-1.815-.534-1.815-.534-1.069,1.736-4.34,2.337-5.942.867a1.308,1.308,0,0,1-.046-2.049c.323,3.019,6.089.247,6.089.247C-518.556,362.574-513.727,360.224-513.607,360.166Z" transform="translate(530.715 -348.655)"/><path class="ea" d="M-490.543,354.735c.006-.02.008-.028.01-.026S-490.552,354.809-490.543,354.735Z" transform="translate(512.522 -345.775)"/><path class="ea" d="M-489.527,356.605c-.486.142-1.936,3.138-1.936,3.138-.066-3.2-4.431-9.814-4.53-8.646-.531,2-3.723,3.629-4.606,3.439-.331-.072-.324-.435-.178-.871,1.674.278,4.809-3.053,4.809-3.053,1.771-.386,4.657,4.19,4.657,4.19,2.065-.775,1.153-4.733.168-6.988a7.009,7.009,0,0,1,.795.883C-488.375,351.281-488.551,356.321-489.527,356.605Z" transform="translate(517.972 -342.138)"/><path class="eb" d="M-510.093,343.492a17.459,17.459,0,0,0-4.292-1.017,6.868,6.868,0,0,0-5.093,1.366,4.993,4.993,0,0,1,1.642-1.632c2.81-1.875,5.846-.427,6.822.132C-510.179,343.037-510.093,343.492-510.093,343.492Z" transform="translate(527.789 -338.689)"/><path class="eb" d="M-494.586,340.327a15.5,15.5,0,0,0-4.39-3.982,1.153,1.153,0,0,1,.371-.246C-497.1,335.46-495.087,339.305-494.586,340.327Z" transform="translate(516.971 -335.918)"/><g class="ec" transform="translate(5.982 0.257)"><path class="ed" d="M-507.016,345.262a8.343,8.343,0,0,1-.687,2.217,7.68,7.68,0,0,1-2.135,2.56,16.447,16.447,0,0,1-2.988,1.721q-1.857.871-3.725,1.726a11.07,11.07,0,0,1-4.989,1.4,3.394,3.394,0,0,1-2.87-1.444,1.927,1.927,0,0,1,.13-.166,3.516,3.516,0,0,0,3.523,1.385,15.4,15.4,0,0,0,4.823-1.68c1.114-.51,2.233-1.011,3.33-1.55a14.385,14.385,0,0,0,2.632-1.54,7.35,7.35,0,0,0,2.167-2.66,9.347,9.347,0,0,0,.579-1.941C-507.156,345.28-507.086,345.27-507.016,345.262Z" transform="translate(524.41 -341.048)"/><path class="ed" d="M-506.445,340.678a7.04,7.04,0,0,1-1.268,1.42,12.493,12.493,0,0,1-5.624,3.741,35.075,35.075,0,0,1-5.994,1.474,17.763,17.763,0,0,1-2.614.361,1.045,1.045,0,0,1-.124-.185,17.162,17.162,0,0,0,3.242-.466,31.889,31.889,0,0,0,5.6-1.434,13.08,13.08,0,0,0,4.642-2.823,13.666,13.666,0,0,1-4.024,1.75,12.189,12.189,0,0,1-4.661.527c-.759-.088-1.55-.247-2.333-.31.172-.078.3-.133.362-.156.4.042.805.1,1.2.162a11.911,11.911,0,0,0,4.712-.24,14.207,14.207,0,0,0,4.464-1.78c.024-.017.05-.036.074-.054-2.439-.335-4.775-1.118-7.258-1.134a17.711,17.711,0,0,0-5.107.707,1.744,1.744,0,0,1,.026-.218,17.159,17.159,0,0,1,4.917-.689,18.22,18.22,0,0,1,3.653.383c1.226.26,2.444.561,3.684.737a5.652,5.652,0,0,0-.373-.667,4.1,4.1,0,0,0-.961-.905,6.7,6.7,0,0,0-.625-.366.2.2,0,0,0-.03-.016,11.468,11.468,0,0,0-1.552-.649,14.656,14.656,0,0,0-3.925-.823,10.663,10.663,0,0,0-1.856.05,5.2,5.2,0,0,1,.879-.272h0q.429-.01.862.016a14.74,14.74,0,0,1,3.613.675c.116.036.231.074.345.114h0l.252.09c.379.136.761.28,1.132.449.05.022.1.046.152.07v0a5.461,5.461,0,0,1,.984.581c.122.092.24.188.356.29-.086-.15-.17-.3-.254-.45a9.863,9.863,0,0,1-1.05-2.24,6.237,6.237,0,0,1-.214-1.907.961.961,0,0,1,.2-.15,5.434,5.434,0,0,0,.263,2.187,13.253,13.253,0,0,0,1.176,2.355c.31.53.751,1.007,1.011,1.564.224-.162.445-.331.659-.517a9.346,9.346,0,0,0,1.009-1.538c.018.036.036.07.05.1l.012.022c.018.036.032.066.044.094-.083.154-.17.3-.261.451.1-.126.2-.255.292-.386a.507.507,0,0,0,.024.05.135.135,0,0,0,.006.014C-506.583,340.716-506.515,340.7-506.445,340.678Z" transform="translate(523.175 -336.34)"/></g><path class="s" d="M-502.34,389.107a5.4,5.4,0,0,0,3.345-.63,1.773,1.773,0,0,1-1.672,1.546A1.814,1.814,0,0,1-502.34,389.107Z" transform="translate(518.746 -363.595)"/></g><path class="ee" d="M-374.061,462.063l-11.3,1.915-8.347-3.3,14.026-.778Z" transform="translate(-75.654 -164.5)"/><path class="ef" d="M-363.074,516.346l-3.2.112-16.944.6c.691-9.72,14.568-31.093,19.073-36.073l.979,32.442Z" transform="translate(-81.191 -175.622)"/><g transform="translate(-481.703 182.343)"><path class="d" d="M-419.838,223.92s1.015-3.485,3.732-3.393,3.471,4.6,3.471,4.6S-416.768,226.5-419.838,223.92Z" transform="translate(419.838 -220.525)"/><path class="s" d="M-416.344,225.481a5.029,5.029,0,0,0-3.494,1.034s3.711,2.835,7.2,1.2A6.1,6.1,0,0,0-416.344,225.481Z" transform="translate(419.838 -223.12)"/><path class="eg" d="M-410.166,227.245a1.306,1.306,0,0,1-1.2,1.4,1.306,1.306,0,0,1-1.4-1.2,1.307,1.307,0,0,1,1.2-1.4A1.307,1.307,0,0,1-410.166,227.245Z" transform="translate(416.111 -223.434)"/><path class="eh" d="M-416.008,223.268a3.718,3.718,0,0,0-3.83,2.091,5.029,5.029,0,0,1,3.494-1.034,6.1,6.1,0,0,1,3.709,2.238C-412.407,226.21-413.673,223.458-416.008,223.268Z" transform="translate(419.838 -221.965)"/></g><g transform="translate(-470.307 181.193)"><path class="d" d="M-395.567,222.993a4.339,4.339,0,0,1,1.987-4.543c2.372-1.227,2.525,1.038,2.639,1.545S-393.407,224.762-395.567,222.993Z" transform="translate(395.686 -218.09)"/><path class="s" d="M-390.878,221.713a5.5,5.5,0,0,0-2.63,1.353,17.422,17.422,0,0,0-1.95,1.839s.736.719,2.6.168C-390.555,224.391-390.878,221.713-390.878,221.713Z" transform="translate(395.577 -220.002)"/><path class="eg" d="M-389.665,224.6a1.236,1.236,0,0,1-1.4,1.042,1.236,1.236,0,0,1-1.041-1.4,1.235,1.235,0,0,1,1.4-1.041A1.235,1.235,0,0,1-389.665,224.6Z" transform="translate(393.818 -220.777)"/><path class="eh" d="M-392.992,220.854c-1.711.614-3.148,2.891-2.6,3.485a17.428,17.428,0,0,1,1.95-1.839,5.5,5.5,0,0,1,2.63-1.353S-391.281,220.24-392.992,220.854Z" transform="translate(395.71 -219.436)"/></g><g transform="translate(-472.664 182.817)"><path class="ei" d="M-399.667,227.926a1.931,1.931,0,0,1-.8-1.335,23.224,23.224,0,0,1-.169-5.062c.121,2.352,2.112,4.437,3.084,5.33.1.091.19.171.266.236C-396.479,227.8-398.23,228.668-399.667,227.926Z" transform="translate(400.7 -221.529)"/><path class="d" d="M-399.411,233.581a1.931,1.931,0,0,1-.8-1.335c.629.586,1.536,1.243,2.241.924a1.29,1.29,0,0,0,.674-.657c.1.091.19.171.266.236C-396.223,233.452-397.974,234.323-399.411,233.581Z" transform="translate(400.444 -227.184)"/></g><path class="ae" d="M-420.556,230.284c-.306.614,1.693,1.731,1.909,1.047S-420.159,229.49-420.556,230.284Z" transform="translate(-61.469 -43.19)"/><path class="ae" d="M-386.584,227.149c.486.354,1.8-1.392.916-1.844C-386.414,224.925-387.162,226.728-386.584,227.149Z" transform="translate(-79.304 -40.677)"/></g></svg>