<svg xmlns="http://www.w3.org/2000/svg" xmlns:xlink="http://www.w3.org/1999/xlink" width="23" height="25" viewBox="0 0 23 25"><defs><style>.a{fill:#e5e5e5;}.b{clip-path:url(#a);}</style><clipPath id="a"><rect class="a" width="23" height="25" transform="translate(-0.001 -0.304)"/></clipPath></defs><g transform="translate(-2724.914 -1457.85)"><g transform="translate(2724.915 1458.154)"><g class="b" transform="translate(0 0)"><path class="a" d="M2749.1,1475.679a.56.56,0,0,0-.712,0,10.176,10.176,0,0,1-5.566,1.587,10.432,10.432,0,0,1-7.281-17.818.572.572,0,0,0,.093-.7.584.584,0,0,0-.653-.269,12.5,12.5,0,0,0,3.279,24.5,12.369,12.369,0,0,0,10.969-6.628.573.573,0,0,0-.128-.677Zm0,0" transform="translate(-2725.936 -1458.342)"/></g></g></g></svg>