<svg xmlns="http://www.w3.org/2000/svg" width="25.129" height="25.129" viewBox="0 0 25.129 25.129"><defs><style>.a{fill:#f5e037;}</style></defs><g transform="translate(-2861 -1602)"><path class="a" d="M2876.308,1611.016a6.294,6.294,0,1,0,6.3,6.295,6.3,6.3,0,0,0-6.3-6.295Zm0,0" transform="translate(-2.745 -2.745)"/><path class="a" d="M2878.525,1606.42a1.228,1.228,0,0,1-1.228-1.228v-1.964a1.228,1.228,0,1,1,2.456,0v1.964a1.226,1.226,0,0,1-1.228,1.228Zm0,0" transform="translate(-4.962 0)"/><path class="a" d="M2878.525,1631.773A1.229,1.229,0,0,0,2877.3,1633v1.964a1.228,1.228,0,1,0,2.456,0V1633a1.227,1.227,0,0,0-1.228-1.228Zm0,0" transform="translate(-4.962 -9.065)"/><path class="a" d="M2887.186,1610.259a1.225,1.225,0,0,1,0-1.736l1.388-1.391a1.229,1.229,0,0,1,1.736,1.739l-1.388,1.388a1.229,1.229,0,0,1-1.736,0Zm0,0" transform="translate(-7.862 -1.453)"/><path class="a" d="M2869.259,1628.186a1.224,1.224,0,0,0-1.736,0l-1.391,1.388a1.229,1.229,0,0,0,1.739,1.736l1.388-1.388a1.229,1.229,0,0,0,0-1.736Zm0,0" transform="translate(-1.453 -7.863)"/><path class="a" d="M2890.773,1619.525A1.229,1.229,0,0,1,2892,1618.3h1.964a1.228,1.228,0,1,1,0,2.456H2892a1.227,1.227,0,0,1-1.229-1.227Zm0,0" transform="translate(-9.065 -4.962)"/><path class="a" d="M2865.42,1619.525a1.228,1.228,0,0,0-1.227-1.228h-1.964a1.228,1.228,0,1,0,0,2.456h1.964a1.226,1.226,0,0,0,1.227-1.227Zm0,0" transform="translate(0 -4.962)"/><path class="a" d="M2887.186,1628.187a1.229,1.229,0,0,1,1.736,0l1.388,1.388a1.228,1.228,0,0,1-1.736,1.736l-1.388-1.388a1.225,1.225,0,0,1,0-1.736Zm0,0" transform="translate(-7.862 -7.864)"/><path class="a" d="M2869.259,1610.26a1.229,1.229,0,0,0,0-1.736l-1.388-1.388a1.229,1.229,0,0,0-1.739,1.736l1.391,1.388a1.224,1.224,0,0,0,1.736,0Zm0,0" transform="translate(-1.453 -1.454)"/></g></svg>